<?xml version="1.0" encoding="UTF-8" standalone="no"?>
<?xml-stylesheet href="styles.css" type="text/css"?>
<!DOCTYPE svg PUBLIC "-//W3C//DTD SVG 1.1//EN"
 "http://www.w3.org/Graphics/SVG/1.1/DTD/svg11.dtd">
<!-- Generated by graphviz version 2.38.0 (20140413.2041)
 -->
<!-- Title: Mux2 Pages: 1 -->
<svg width="304pt" height="207pt"
 viewBox="0.00 0.00 304.00 207.00" xmlns="http://www.w3.org/2000/svg" xmlns:xlink="http://www.w3.org/1999/xlink">
<g id="graph0" class="graph" transform="scale(1 1) rotate(0) translate(4 203)">
<title>Mux2</title>
<polygon fill="white" stroke="none" points="-4,4 -4,-203 300,-203 300,4 -4,4"/>
<g id="clust1" class="cluster"><title>cluster_Mux2</title>
<polygon fill="#fff8dc" stroke="black" points="8,-8 8,-191 288,-191 288,-8 8,-8"/>
<text text-anchor="middle" x="148" y="-175.8" font-family="Times,serif" font-size="14.00">Mux2</text>
</g>
<!-- cluster_Mux2_io_sel -->
<g id="node1" class="node"><title>cluster_Mux2_io_sel</title>
<polygon fill="#cccccc" stroke="black" points="72.5,-106 18.5,-106 18.5,-70 72.5,-70 72.5,-106"/>
<text text-anchor="middle" x="45.5" y="-84.3" font-family="Times,serif" font-size="14.00">io_sel</text>
</g>
<!-- mux_1825592062 -->
<g id="node5" class="node"><title>mux_1825592062</title>
<polygon fill="#afeeee" stroke="none" points="119,-63 119,-113 182,-113 182,-63 119,-63"/>
<polygon fill="none" stroke="black" points="119.5,-88 119.5,-113 139.5,-113 139.5,-88 119.5,-88"/>
<text text-anchor="start" x="124.5" y="-96.8" font-family="Times,serif" font-size="14.00">●</text>
<polygon fill="none" stroke="black" points="139.5,-63 139.5,-113 162.5,-113 162.5,-63 139.5,-63"/>
<text text-anchor="start" x="144.5" y="-84.3" font-family="Times,serif" font-size="14.00">a?</text>
<polygon fill="none" stroke="black" points="162.5,-63 162.5,-113 182.5,-113 182.5,-63 162.5,-63"/>
<text text-anchor="start" x="167.5" y="-84.3" font-family="Times,serif" font-size="14.00">●</text>
<polygon fill="none" stroke="black" points="119.5,-63 119.5,-88 139.5,-88 139.5,-63 119.5,-63"/>
<text text-anchor="start" x="124.5" y="-71.8" font-family="Times,serif" font-size="14.00">●</text>
</g>
<!-- cluster_Mux2_io_sel&#45;&gt;mux_1825592062 -->
<g id="edge3" class="edge"><title>cluster_Mux2_io_sel&#45;&gt;mux_1825592062:select</title>
<path fill="none" stroke="black" d="M72.7251,-71.1668C99.6948,-55.1288 139.129,-35.6516 149.128,-51.8869"/>
<polygon fill="black" stroke="black" points="145.809,-53.0636 151.5,-62 152.624,-51.4649 145.809,-53.0636"/>
</g>
<!-- cluster_Mux2_io_xs_0 -->
<g id="node2" class="node"><title>cluster_Mux2_io_xs_0</title>
<polygon fill="#cccccc" stroke="black" points="75,-52 16,-52 16,-16 75,-16 75,-52"/>
<text text-anchor="middle" x="45.5" y="-30.3" font-family="Times,serif" font-size="14.00">io_xs_0</text>
</g>
<!-- cluster_Mux2_io_xs_0&#45;&gt;mux_1825592062 -->
<g id="edge2" class="edge"><title>cluster_Mux2_io_xs_0&#45;&gt;mux_1825592062:in2</title>
<path fill="none" stroke="black" d="M65.6372,-52.1025C76.9333,-61.1981 92.1596,-70.932 108.334,-74.0094"/>
<polygon fill="black" stroke="black" points="108.208,-77.5136 118.5,-75 108.887,-70.5466 108.208,-77.5136"/>
</g>
<!-- cluster_Mux2_io_xs_1 -->
<g id="node3" class="node"><title>cluster_Mux2_io_xs_1</title>
<polygon fill="#cccccc" stroke="black" points="75,-160 16,-160 16,-124 75,-124 75,-160"/>
<text text-anchor="middle" x="45.5" y="-138.3" font-family="Times,serif" font-size="14.00">io_xs_1</text>
</g>
<!-- cluster_Mux2_io_xs_1&#45;&gt;mux_1825592062 -->
<g id="edge4" class="edge"><title>cluster_Mux2_io_xs_1&#45;&gt;mux_1825592062:in1</title>
<path fill="none" stroke="black" d="M65.6372,-123.897C76.9333,-114.802 92.1596,-105.068 108.334,-101.991"/>
<polygon fill="black" stroke="black" points="108.887,-105.453 118.5,-101 108.208,-98.4864 108.887,-105.453"/>
</g>
<!-- cluster_Mux2_io_y -->
<g id="node4" class="node"><title>cluster_Mux2_io_y</title>
<polygon fill="#e0ffff" stroke="black" points="280,-106 226,-106 226,-70 280,-70 280,-106"/>
<text text-anchor="middle" x="253" y="-84.3" font-family="Times,serif" font-size="14.00">io_y</text>
</g>
<!-- mux_1825592062&#45;&gt;cluster_Mux2_io_y -->
<g id="edge1" class="edge"><title>mux_1825592062:out&#45;&gt;cluster_Mux2_io_y</title>
<path fill="none" stroke="black" d="M183.5,-88C194.025,-88 205.459,-88 215.916,-88"/>
<polygon fill="black" stroke="black" points="215.978,-91.5001 225.978,-88 215.978,-84.5001 215.978,-91.5001"/>
</g>
</g>
</svg>
