<?xml version="1.0" encoding="UTF-8" standalone="no"?>
<?xml-stylesheet href="styles.css" type="text/css"?>
<!DOCTYPE svg PUBLIC "-//W3C//DTD SVG 1.1//EN"
 "http://www.w3.org/Graphics/SVG/1.1/DTD/svg11.dtd">
<!-- Generated by graphviz version 2.38.0 (20140413.2041)
 -->
<!-- Title: Mux5_hierarchy Pages: 1 -->
<svg width="184pt" height="206pt"
 viewBox="0.00 0.00 184.00 206.00" xmlns="http://www.w3.org/2000/svg" xmlns:xlink="http://www.w3.org/1999/xlink">
<g id="graph0" class="graph" transform="scale(1 1) rotate(0) translate(4 202)">
<title>Mux5_hierarchy</title>
<polygon fill="white" stroke="none" points="-4,4 -4,-202 180,-202 180,4 -4,4"/>
<!-- module_1 -->
<g id="node1" class="node"><title>module_1</title>
<g id="a_node1"><a xlink:href="Mux5.dot.svg" xlink:title="&lt;TABLE&gt;">
<polygon fill="#ffdead" stroke="none" points="8.5,-149 8.5,-174 65.5,-174 65.5,-149 8.5,-149"/>
<polygon fill="none" stroke="black" points="8.5,-149 8.5,-174 65.5,-174 65.5,-149 8.5,-149"/>
<text text-anchor="start" x="16.5" y="-157.8" font-family="Times,serif" font-size="14.00"> Mux5 </text>
<polygon fill="#fff8dc" stroke="none" points="8.5,-124 8.5,-149 65.5,-149 65.5,-124 8.5,-124"/>
<polygon fill="none" stroke="black" points="8.5,-124 8.5,-149 65.5,-149 65.5,-124 8.5,-124"/>
<text text-anchor="start" x="20" y="-132.8" font-family="Times,serif" font-size="14.00">Mux2</text>
<polygon fill="#fff8dc" stroke="none" points="8.5,-99 8.5,-124 65.5,-124 65.5,-99 8.5,-99"/>
<polygon fill="none" stroke="black" points="8.5,-99 8.5,-124 65.5,-124 65.5,-99 8.5,-99"/>
<text text-anchor="start" x="13.5" y="-107.8" font-family="Times,serif" font-size="14.00">Mux2_1</text>
<polygon fill="#fff8dc" stroke="none" points="8.5,-74 8.5,-99 65.5,-99 65.5,-74 8.5,-74"/>
<polygon fill="none" stroke="black" points="8.5,-74 8.5,-99 65.5,-99 65.5,-74 8.5,-74"/>
<text text-anchor="start" x="13.5" y="-82.8" font-family="Times,serif" font-size="14.00">Mux2_2</text>
<polygon fill="#fff8dc" stroke="none" points="8.5,-49 8.5,-74 65.5,-74 65.5,-49 8.5,-49"/>
<polygon fill="none" stroke="black" points="8.5,-49 8.5,-74 65.5,-74 65.5,-49 8.5,-49"/>
<text text-anchor="start" x="13.5" y="-57.8" font-family="Times,serif" font-size="14.00">Mux2_3</text>
</a>
</g>
</g>
<!-- module_2 -->
<g id="node2" class="node"><title>module_2</title>
<g id="a_node2"><a xlink:href="Mux2.dot.svg" xlink:title="&lt;TABLE&gt;">
<polygon fill="#ffdead" stroke="none" points="117.5,-167 117.5,-192 168.5,-192 168.5,-167 117.5,-167"/>
<polygon fill="none" stroke="black" points="117.5,-167 117.5,-192 168.5,-192 168.5,-167 117.5,-167"/>
<text text-anchor="start" x="122.5" y="-175.8" font-family="Times,serif" font-size="14.00"> Mux2 </text>
</a>
</g>
</g>
<!-- module_1&#45;&gt;module_2 -->
<g id="edge1" class="edge"><title>module_1:module_2&#45;&gt;module_2</title>
<path fill="none" stroke="black" d="M66.5,-137C75.4281,-137 92.2555,-146.287 107.712,-156.228"/>
<polygon fill="black" stroke="black" points="105.825,-159.177 116.099,-161.764 109.681,-153.334 105.825,-159.177"/>
</g>
<!-- module_3 -->
<g id="node3" class="node"><title>module_3</title>
<g id="a_node3"><a xlink:href="Mux2.dot.svg" xlink:title="&lt;TABLE&gt;">
<polygon fill="#ffdead" stroke="none" points="117.5,-113 117.5,-138 168.5,-138 168.5,-113 117.5,-113"/>
<polygon fill="none" stroke="black" points="117.5,-113 117.5,-138 168.5,-138 168.5,-113 117.5,-113"/>
<text text-anchor="start" x="122.5" y="-121.8" font-family="Times,serif" font-size="14.00"> Mux2 </text>
</a>
</g>
</g>
<!-- module_1&#45;&gt;module_3 -->
<g id="edge2" class="edge"><title>module_1:module_3&#45;&gt;module_3</title>
<path fill="none" stroke="black" d="M66.5,-111C77.1665,-111 88.5236,-112.477 99.0875,-114.504"/>
<polygon fill="black" stroke="black" points="98.4165,-117.939 108.924,-116.585 99.8657,-111.091 98.4165,-117.939"/>
</g>
<!-- module_4 -->
<g id="node4" class="node"><title>module_4</title>
<g id="a_node4"><a xlink:href="Mux2.dot.svg" xlink:title="&lt;TABLE&gt;">
<polygon fill="#ffdead" stroke="none" points="117.5,-59 117.5,-84 168.5,-84 168.5,-59 117.5,-59"/>
<polygon fill="none" stroke="black" points="117.5,-59 117.5,-84 168.5,-84 168.5,-59 117.5,-59"/>
<text text-anchor="start" x="122.5" y="-67.8" font-family="Times,serif" font-size="14.00"> Mux2 </text>
</a>
</g>
</g>
<!-- module_1&#45;&gt;module_4 -->
<g id="edge3" class="edge"><title>module_1:module_4&#45;&gt;module_4</title>
<path fill="none" stroke="black" d="M66.5,-86C77.1401,-86 88.4872,-84.6216 99.0501,-82.7298"/>
<polygon fill="black" stroke="black" points="99.7561,-86.158 108.888,-80.7869 98.3998,-79.2907 99.7561,-86.158"/>
</g>
<!-- module_5 -->
<g id="node5" class="node"><title>module_5</title>
<g id="a_node5"><a xlink:href="Mux2.dot.svg" xlink:title="&lt;TABLE&gt;">
<polygon fill="#ffdead" stroke="none" points="117.5,-5 117.5,-30 168.5,-30 168.5,-5 117.5,-5"/>
<polygon fill="none" stroke="black" points="117.5,-5 117.5,-30 168.5,-30 168.5,-5 117.5,-5"/>
<text text-anchor="start" x="122.5" y="-13.8" font-family="Times,serif" font-size="14.00"> Mux2 </text>
</a>
</g>
</g>
<!-- module_1&#45;&gt;module_5 -->
<g id="edge4" class="edge"><title>module_1:module_5&#45;&gt;module_5</title>
<path fill="none" stroke="black" d="M66.5,-61C75.4281,-61 92.2555,-51.7135 107.712,-41.7717"/>
<polygon fill="black" stroke="black" points="109.681,-44.6656 116.099,-36.2359 105.825,-38.8235 109.681,-44.6656"/>
</g>
</g>
</svg>
