<?xml version="1.0" encoding="UTF-8" standalone="no"?>
<?xml-stylesheet href="styles.css" type="text/css"?>
<!DOCTYPE svg PUBLIC "-//W3C//DTD SVG 1.1//EN"
 "http://www.w3.org/Graphics/SVG/1.1/DTD/svg11.dtd">
<!-- Generated by graphviz version 2.38.0 (20140413.2041)
 -->
<!-- Title: Mux5 Pages: 1 -->
<svg width="883pt" height="631pt"
 viewBox="0.00 0.00 883.00 631.00" xmlns="http://www.w3.org/2000/svg" xmlns:xlink="http://www.w3.org/1999/xlink">
<g id="graph0" class="graph" transform="scale(1 1) rotate(0) translate(4 627)">
<title>Mux5</title>
<polygon fill="white" stroke="none" points="-4,4 -4,-627 879,-627 879,4 -4,4"/>
<g id="clust1" class="cluster"><title>cluster_Mux5</title>
<polygon fill="#fff8dc" stroke="black" points="8,-8 8,-615 867,-615 867,-8 8,-8"/>
<text text-anchor="middle" x="437.5" y="-599.8" font-family="Times,serif" font-size="14.00">Mux5</text>
</g>
<g id="clust2" class="cluster"><title>cluster_Mux5_Mux2</title>
<g id="a_clust2"><a xlink:href="Mux2.dot.svg" xlink:title="Mux2">
<polygon fill="#add8e6" stroke="black" points="428,-16 428,-253 503,-253 503,-16 428,-16"/>
<text text-anchor="middle" x="465.5" y="-237.8" font-family="Times,serif" font-size="14.00">Mux2</text>
</a>
</g>
</g>
<g id="clust3" class="cluster"><title>cluster_Mux5_Mux2_1</title>
<g id="a_clust3"><a xlink:href="Mux2.dot.svg" xlink:title="Mux2_1">
<polygon fill="#add8e6" stroke="black" points="428,-261 428,-498 503,-498 503,-261 428,-261"/>
<text text-anchor="middle" x="465.5" y="-482.8" font-family="Times,serif" font-size="14.00">Mux2_1</text>
</a>
</g>
</g>
<g id="clust4" class="cluster"><title>cluster_Mux5_Mux2_2</title>
<g id="a_clust4"><a xlink:href="Mux2.dot.svg" xlink:title="Mux2_2">
<polygon fill="#add8e6" stroke="black" points="579,-185 579,-422 654,-422 654,-185 579,-185"/>
<text text-anchor="middle" x="616.5" y="-406.8" font-family="Times,serif" font-size="14.00">Mux2_2</text>
</a>
</g>
</g>
<g id="clust5" class="cluster"><title>cluster_Mux5_Mux2_3</title>
<g id="a_clust5"><a xlink:href="Mux2.dot.svg" xlink:title="Mux2_3">
<polygon fill="#add8e6" stroke="black" points="702,-77 702,-314 777,-314 777,-77 702,-77"/>
<text text-anchor="middle" x="739.5" y="-298.8" font-family="Times,serif" font-size="14.00">Mux2_3</text>
</a>
</g>
</g>
<!-- cluster_Mux5_clock -->
<g id="node1" class="node"><title>cluster_Mux5_clock</title>
<polygon fill="#cccccc" stroke="black" points="70,-584 16,-584 16,-548 70,-548 70,-584"/>
<text text-anchor="middle" x="43" y="-562.3" font-family="Times,serif" font-size="14.00">clock</text>
</g>
<!-- cluster_Mux5_reset -->
<g id="node2" class="node"><title>cluster_Mux5_reset</title>
<polygon fill="#cccccc" stroke="black" points="70,-530 16,-530 16,-494 70,-494 70,-530"/>
<text text-anchor="middle" x="43" y="-508.3" font-family="Times,serif" font-size="14.00">reset</text>
</g>
<!-- cluster_Mux5_io_sel -->
<g id="node3" class="node"><title>cluster_Mux5_io_sel</title>
<polygon fill="#cccccc" stroke="black" points="70,-476 16,-476 16,-440 70,-440 70,-476"/>
<text text-anchor="middle" x="43" y="-454.3" font-family="Times,serif" font-size="14.00">io_sel</text>
</g>
<!-- op_bits_2 -->
<g id="node27" class="node"><title>op_bits_2</title>
<polygon fill="#d8bfd8" stroke="none" points="114,-297 114,-347 213,-347 213,-297 114,-297"/>
<polygon fill="none" stroke="black" points="114.5,-322 114.5,-347 155.5,-347 155.5,-322 114.5,-322"/>
<text text-anchor="start" x="130" y="-330.8" font-family="Times,serif" font-size="14.00">●</text>
<polygon fill="none" stroke="black" points="155.5,-297 155.5,-347 193.5,-347 193.5,-297 155.5,-297"/>
<text text-anchor="start" x="160.5" y="-318.3" font-family="Times,serif" font-size="14.00"> bits </text>
<polygon fill="none" stroke="black" points="193.5,-297 193.5,-347 213.5,-347 213.5,-297 193.5,-297"/>
<text text-anchor="start" x="198.5" y="-318.3" font-family="Times,serif" font-size="14.00">●</text>
<polygon fill="none" stroke="black" points="114.5,-297 114.5,-322 155.5,-322 155.5,-297 114.5,-297"/>
<text text-anchor="start" x="119.5" y="-305.8" font-family="Times,serif" font-size="14.00">(1, 0)</text>
</g>
<!-- cluster_Mux5_io_sel&#45;&gt;op_bits_2 -->
<g id="edge8" class="edge"><title>cluster_Mux5_io_sel&#45;&gt;op_bits_2:in1</title>
<path fill="none" stroke="black" d="M45.8821,-439.851C50.1939,-408.176 63.6935,-345.284 103.429,-336.124"/>
<polygon fill="black" stroke="black" points="103.95,-339.587 113.5,-335 103.174,-332.63 103.95,-339.587"/>
</g>
<!-- op_bits_4 -->
<g id="node29" class="node"><title>op_bits_4</title>
<polygon fill="#d8bfd8" stroke="none" points="114,-427 114,-477 213,-477 213,-427 114,-427"/>
<polygon fill="none" stroke="black" points="114.5,-452 114.5,-477 155.5,-477 155.5,-452 114.5,-452"/>
<text text-anchor="start" x="130" y="-460.8" font-family="Times,serif" font-size="14.00">●</text>
<polygon fill="none" stroke="black" points="155.5,-427 155.5,-477 193.5,-477 193.5,-427 155.5,-427"/>
<text text-anchor="start" x="160.5" y="-448.3" font-family="Times,serif" font-size="14.00"> bits </text>
<polygon fill="none" stroke="black" points="193.5,-427 193.5,-477 213.5,-477 213.5,-427 193.5,-427"/>
<text text-anchor="start" x="198.5" y="-448.3" font-family="Times,serif" font-size="14.00">●</text>
<polygon fill="none" stroke="black" points="114.5,-427 114.5,-452 155.5,-452 155.5,-427 114.5,-427"/>
<text text-anchor="start" x="119.5" y="-435.8" font-family="Times,serif" font-size="14.00">(1, 0)</text>
</g>
<!-- cluster_Mux5_io_sel&#45;&gt;op_bits_4 -->
<g id="edge20" class="edge"><title>cluster_Mux5_io_sel&#45;&gt;op_bits_4:in1</title>
<path fill="none" stroke="black" d="M70.0101,-461.869C80.0853,-463.121 91.9585,-464.309 103.498,-464.783"/>
<polygon fill="black" stroke="black" points="103.427,-468.283 113.5,-465 103.578,-461.284 103.427,-468.283"/>
</g>
<!-- op_bits_6 -->
<g id="node31" class="node"><title>op_bits_6</title>
<polygon fill="#d8bfd8" stroke="none" points="265,-508 265,-558 364,-558 364,-508 265,-508"/>
<polygon fill="none" stroke="black" points="265.5,-533 265.5,-558 306.5,-558 306.5,-533 265.5,-533"/>
<text text-anchor="start" x="281" y="-541.8" font-family="Times,serif" font-size="14.00">●</text>
<polygon fill="none" stroke="black" points="306.5,-508 306.5,-558 344.5,-558 344.5,-508 306.5,-508"/>
<text text-anchor="start" x="311.5" y="-529.3" font-family="Times,serif" font-size="14.00"> bits </text>
<polygon fill="none" stroke="black" points="344.5,-508 344.5,-558 364.5,-558 364.5,-508 344.5,-508"/>
<text text-anchor="start" x="349.5" y="-529.3" font-family="Times,serif" font-size="14.00">●</text>
<polygon fill="none" stroke="black" points="265.5,-508 265.5,-533 306.5,-533 306.5,-508 265.5,-508"/>
<text text-anchor="start" x="270.5" y="-516.8" font-family="Times,serif" font-size="14.00">(1, 0)</text>
</g>
<!-- cluster_Mux5_io_sel&#45;&gt;op_bits_6 -->
<g id="edge9" class="edge"><title>cluster_Mux5_io_sel&#45;&gt;op_bits_6:in1</title>
<path fill="none" stroke="black" d="M70.1467,-476.02C108.327,-500.609 182.622,-542.063 254.393,-545.738"/>
<polygon fill="black" stroke="black" points="254.413,-549.239 264.5,-546 254.594,-542.242 254.413,-549.239"/>
</g>
<!-- op_bits_7 -->
<g id="node32" class="node"><title>op_bits_7</title>
<polygon fill="#d8bfd8" stroke="none" points="567,-498 567,-548 666,-548 666,-498 567,-498"/>
<polygon fill="none" stroke="black" points="567.5,-523 567.5,-548 608.5,-548 608.5,-523 567.5,-523"/>
<text text-anchor="start" x="583" y="-531.8" font-family="Times,serif" font-size="14.00">●</text>
<polygon fill="none" stroke="black" points="608.5,-498 608.5,-548 646.5,-548 646.5,-498 608.5,-498"/>
<text text-anchor="start" x="613.5" y="-519.3" font-family="Times,serif" font-size="14.00"> bits </text>
<polygon fill="none" stroke="black" points="646.5,-498 646.5,-548 666.5,-548 666.5,-498 646.5,-498"/>
<text text-anchor="start" x="651.5" y="-519.3" font-family="Times,serif" font-size="14.00">●</text>
<polygon fill="none" stroke="black" points="567.5,-498 567.5,-523 608.5,-523 608.5,-498 567.5,-498"/>
<text text-anchor="start" x="572.5" y="-506.8" font-family="Times,serif" font-size="14.00">(2, 2)</text>
</g>
<!-- cluster_Mux5_io_sel&#45;&gt;op_bits_7 -->
<g id="edge16" class="edge"><title>cluster_Mux5_io_sel&#45;&gt;op_bits_7:in1</title>
<path fill="none" stroke="black" d="M61.7061,-476.22C64.4978,-479.141 67.3395,-482.142 70,-485 86.2974,-502.506 85.8231,-512.157 106,-525 165.184,-562.672 187.679,-560.206 257,-571 373.818,-589.19 412.04,-613.807 523,-573 543.099,-565.608 542.18,-544.349 556.648,-537.886"/>
<polygon fill="black" stroke="black" points="557.337,-541.318 566.5,-536 556.02,-534.443 557.337,-541.318"/>
</g>
<!-- cluster_Mux5_io_xs_0 -->
<g id="node4" class="node"><title>cluster_Mux5_io_xs_0</title>
<polygon fill="#cccccc" stroke="black" points="344,-405 285,-405 285,-369 344,-369 344,-405"/>
<text text-anchor="middle" x="314.5" y="-383.3" font-family="Times,serif" font-size="14.00">io_xs_0</text>
</g>
<!-- cluster_Mux5_Mux2_1_io_xs_0 -->
<g id="node15" class="node"><title>cluster_Mux5_Mux2_1_io_xs_0</title>
<polygon fill="#cccccc" stroke="black" points="495,-413 436,-413 436,-377 495,-377 495,-413"/>
<text text-anchor="middle" x="465.5" y="-391.3" font-family="Times,serif" font-size="14.00">io_xs_0</text>
</g>
<!-- cluster_Mux5_io_xs_0&#45;&gt;cluster_Mux5_Mux2_1_io_xs_0 -->
<g id="edge12" class="edge"><title>cluster_Mux5_io_xs_0&#45;&gt;cluster_Mux5_Mux2_1_io_xs_0</title>
<path fill="none" stroke="black" d="M344.229,-388.542C367.418,-389.788 400.268,-391.551 425.778,-392.921"/>
<polygon fill="black" stroke="black" points="425.686,-396.421 435.859,-393.462 426.062,-389.431 425.686,-396.421"/>
</g>
<!-- cluster_Mux5_io_xs_1 -->
<g id="node5" class="node"><title>cluster_Mux5_io_xs_1</title>
<polygon fill="#cccccc" stroke="black" points="344,-351 285,-351 285,-315 344,-315 344,-351"/>
<text text-anchor="middle" x="314.5" y="-329.3" font-family="Times,serif" font-size="14.00">io_xs_1</text>
</g>
<!-- cluster_Mux5_Mux2_1_io_xs_1 -->
<g id="node16" class="node"><title>cluster_Mux5_Mux2_1_io_xs_1</title>
<polygon fill="#cccccc" stroke="black" points="495,-359 436,-359 436,-323 495,-323 495,-359"/>
<text text-anchor="middle" x="465.5" y="-337.3" font-family="Times,serif" font-size="14.00">io_xs_1</text>
</g>
<!-- cluster_Mux5_io_xs_1&#45;&gt;cluster_Mux5_Mux2_1_io_xs_1 -->
<g id="edge5" class="edge"><title>cluster_Mux5_io_xs_1&#45;&gt;cluster_Mux5_Mux2_1_io_xs_1</title>
<path fill="none" stroke="black" d="M344.229,-334.542C367.418,-335.788 400.268,-337.551 425.778,-338.921"/>
<polygon fill="black" stroke="black" points="425.686,-342.421 435.859,-339.462 426.062,-335.431 425.686,-342.421"/>
</g>
<!-- cluster_Mux5_io_xs_2 -->
<g id="node6" class="node"><title>cluster_Mux5_io_xs_2</title>
<polygon fill="#cccccc" stroke="black" points="344,-168 285,-168 285,-132 344,-132 344,-168"/>
<text text-anchor="middle" x="314.5" y="-146.3" font-family="Times,serif" font-size="14.00">io_xs_2</text>
</g>
<!-- cluster_Mux5_Mux2_io_xs_0 -->
<g id="node11" class="node"><title>cluster_Mux5_Mux2_io_xs_0</title>
<polygon fill="#cccccc" stroke="black" points="495,-168 436,-168 436,-132 495,-132 495,-168"/>
<text text-anchor="middle" x="465.5" y="-146.3" font-family="Times,serif" font-size="14.00">io_xs_0</text>
</g>
<!-- cluster_Mux5_io_xs_2&#45;&gt;cluster_Mux5_Mux2_io_xs_0 -->
<g id="edge13" class="edge"><title>cluster_Mux5_io_xs_2&#45;&gt;cluster_Mux5_Mux2_io_xs_0</title>
<path fill="none" stroke="black" d="M344.229,-150C367.418,-150 400.268,-150 425.778,-150"/>
<polygon fill="black" stroke="black" points="425.86,-153.5 435.859,-150 425.859,-146.5 425.86,-153.5"/>
</g>
<!-- cluster_Mux5_io_xs_3 -->
<g id="node7" class="node"><title>cluster_Mux5_io_xs_3</title>
<polygon fill="#cccccc" stroke="black" points="344,-114 285,-114 285,-78 344,-78 344,-114"/>
<text text-anchor="middle" x="314.5" y="-92.3" font-family="Times,serif" font-size="14.00">io_xs_3</text>
</g>
<!-- cluster_Mux5_Mux2_io_xs_1 -->
<g id="node12" class="node"><title>cluster_Mux5_Mux2_io_xs_1</title>
<polygon fill="#cccccc" stroke="black" points="495,-114 436,-114 436,-78 495,-78 495,-114"/>
<text text-anchor="middle" x="465.5" y="-92.3" font-family="Times,serif" font-size="14.00">io_xs_1</text>
</g>
<!-- cluster_Mux5_io_xs_3&#45;&gt;cluster_Mux5_Mux2_io_xs_1 -->
<g id="edge7" class="edge"><title>cluster_Mux5_io_xs_3&#45;&gt;cluster_Mux5_Mux2_io_xs_1</title>
<path fill="none" stroke="black" d="M344.229,-96C367.418,-96 400.268,-96 425.778,-96"/>
<polygon fill="black" stroke="black" points="425.86,-99.5001 435.859,-96 425.859,-92.5001 425.86,-99.5001"/>
</g>
<!-- cluster_Mux5_io_xs_4 -->
<g id="node8" class="node"><title>cluster_Mux5_io_xs_4</title>
<polygon fill="#cccccc" stroke="black" points="646,-175 587,-175 587,-139 646,-139 646,-175"/>
<text text-anchor="middle" x="616.5" y="-153.3" font-family="Times,serif" font-size="14.00">io_xs_4</text>
</g>
<!-- cluster_Mux5_Mux2_3_io_xs_1 -->
<g id="node24" class="node"><title>cluster_Mux5_Mux2_3_io_xs_1</title>
<polygon fill="#cccccc" stroke="black" points="769,-175 710,-175 710,-139 769,-139 769,-175"/>
<text text-anchor="middle" x="739.5" y="-153.3" font-family="Times,serif" font-size="14.00">io_xs_1</text>
</g>
<!-- cluster_Mux5_io_xs_4&#45;&gt;cluster_Mux5_Mux2_3_io_xs_1 -->
<g id="edge11" class="edge"><title>cluster_Mux5_io_xs_4&#45;&gt;cluster_Mux5_Mux2_3_io_xs_1</title>
<path fill="none" stroke="black" d="M646.175,-157C662.033,-157 681.968,-157 699.252,-157"/>
<polygon fill="black" stroke="black" points="699.611,-160.5 709.611,-157 699.611,-153.5 699.611,-160.5"/>
</g>
<!-- cluster_Mux5_io_y -->
<g id="node9" class="node"><title>cluster_Mux5_io_y</title>
<polygon fill="#e0ffff" stroke="black" points="859,-121 805,-121 805,-85 859,-85 859,-121"/>
<text text-anchor="middle" x="832" y="-99.3" font-family="Times,serif" font-size="14.00">io_y</text>
</g>
<!-- cluster_Mux5_Mux2_io_sel -->
<g id="node10" class="node"><title>cluster_Mux5_Mux2_io_sel</title>
<polygon fill="#cccccc" stroke="black" points="492.5,-222 438.5,-222 438.5,-186 492.5,-186 492.5,-222"/>
<text text-anchor="middle" x="465.5" y="-200.3" font-family="Times,serif" font-size="14.00">io_sel</text>
</g>
<!-- cluster_Mux5_Mux2_io_y -->
<g id="node13" class="node"><title>cluster_Mux5_Mux2_io_y</title>
<polygon fill="#e0ffff" stroke="black" points="492.5,-60 438.5,-60 438.5,-24 492.5,-24 492.5,-60"/>
<text text-anchor="middle" x="465.5" y="-38.3" font-family="Times,serif" font-size="14.00">io_y</text>
</g>
<!-- cluster_Mux5_Mux2_2_io_xs_1 -->
<g id="node20" class="node"><title>cluster_Mux5_Mux2_2_io_xs_1</title>
<polygon fill="#cccccc" stroke="black" points="646,-283 587,-283 587,-247 646,-247 646,-283"/>
<text text-anchor="middle" x="616.5" y="-261.3" font-family="Times,serif" font-size="14.00">io_xs_1</text>
</g>
<!-- cluster_Mux5_Mux2_io_y&#45;&gt;cluster_Mux5_Mux2_2_io_xs_1 -->
<g id="edge17" class="edge"><title>cluster_Mux5_Mux2_io_y&#45;&gt;cluster_Mux5_Mux2_2_io_xs_1</title>
<path fill="none" stroke="black" d="M492.575,-48.8303C503.496,-52.9601 515.396,-59.3514 523,-69 570.535,-129.316 511.465,-177.684 559,-238 563.921,-244.244 570.64,-249.124 577.73,-252.909"/>
<polygon fill="black" stroke="black" points="576.257,-256.084 586.799,-257.139 579.216,-249.74 576.257,-256.084"/>
</g>
<!-- cluster_Mux5_Mux2_1_io_sel -->
<g id="node14" class="node"><title>cluster_Mux5_Mux2_1_io_sel</title>
<polygon fill="#cccccc" stroke="black" points="492.5,-467 438.5,-467 438.5,-431 492.5,-431 492.5,-467"/>
<text text-anchor="middle" x="465.5" y="-445.3" font-family="Times,serif" font-size="14.00">io_sel</text>
</g>
<!-- cluster_Mux5_Mux2_1_io_y -->
<g id="node17" class="node"><title>cluster_Mux5_Mux2_1_io_y</title>
<polygon fill="#e0ffff" stroke="black" points="492.5,-305 438.5,-305 438.5,-269 492.5,-269 492.5,-305"/>
<text text-anchor="middle" x="465.5" y="-283.3" font-family="Times,serif" font-size="14.00">io_y</text>
</g>
<!-- cluster_Mux5_Mux2_2_io_xs_0 -->
<g id="node19" class="node"><title>cluster_Mux5_Mux2_2_io_xs_0</title>
<polygon fill="#cccccc" stroke="black" points="646,-337 587,-337 587,-301 646,-301 646,-337"/>
<text text-anchor="middle" x="616.5" y="-315.3" font-family="Times,serif" font-size="14.00">io_xs_0</text>
</g>
<!-- cluster_Mux5_Mux2_1_io_y&#45;&gt;cluster_Mux5_Mux2_2_io_xs_0 -->
<g id="edge6" class="edge"><title>cluster_Mux5_Mux2_1_io_y&#45;&gt;cluster_Mux5_Mux2_2_io_xs_0</title>
<path fill="none" stroke="black" d="M492.795,-292.647C516.102,-297.653 550.438,-305.027 576.866,-310.703"/>
<polygon fill="black" stroke="black" points="576.416,-314.186 586.928,-312.864 577.886,-307.342 576.416,-314.186"/>
</g>
<!-- cluster_Mux5_Mux2_2_io_sel -->
<g id="node18" class="node"><title>cluster_Mux5_Mux2_2_io_sel</title>
<polygon fill="#cccccc" stroke="black" points="643.5,-391 589.5,-391 589.5,-355 643.5,-355 643.5,-391"/>
<text text-anchor="middle" x="616.5" y="-369.3" font-family="Times,serif" font-size="14.00">io_sel</text>
</g>
<!-- cluster_Mux5_Mux2_2_io_y -->
<g id="node21" class="node"><title>cluster_Mux5_Mux2_2_io_y</title>
<polygon fill="#e0ffff" stroke="black" points="643.5,-229 589.5,-229 589.5,-193 643.5,-193 643.5,-229"/>
<text text-anchor="middle" x="616.5" y="-207.3" font-family="Times,serif" font-size="14.00">io_y</text>
</g>
<!-- cluster_Mux5_Mux2_3_io_xs_0 -->
<g id="node23" class="node"><title>cluster_Mux5_Mux2_3_io_xs_0</title>
<polygon fill="#cccccc" stroke="black" points="769,-229 710,-229 710,-193 769,-193 769,-229"/>
<text text-anchor="middle" x="739.5" y="-207.3" font-family="Times,serif" font-size="14.00">io_xs_0</text>
</g>
<!-- cluster_Mux5_Mux2_2_io_y&#45;&gt;cluster_Mux5_Mux2_3_io_xs_0 -->
<g id="edge19" class="edge"><title>cluster_Mux5_Mux2_2_io_y&#45;&gt;cluster_Mux5_Mux2_3_io_xs_0</title>
<path fill="none" stroke="black" d="M643.755,-211C660.1,-211 681.417,-211 699.691,-211"/>
<polygon fill="black" stroke="black" points="699.758,-214.5 709.758,-211 699.758,-207.5 699.758,-214.5"/>
</g>
<!-- cluster_Mux5_Mux2_3_io_sel -->
<g id="node22" class="node"><title>cluster_Mux5_Mux2_3_io_sel</title>
<polygon fill="#cccccc" stroke="black" points="766.5,-283 712.5,-283 712.5,-247 766.5,-247 766.5,-283"/>
<text text-anchor="middle" x="739.5" y="-261.3" font-family="Times,serif" font-size="14.00">io_sel</text>
</g>
<!-- cluster_Mux5_Mux2_3_io_y -->
<g id="node25" class="node"><title>cluster_Mux5_Mux2_3_io_y</title>
<polygon fill="#e0ffff" stroke="black" points="766.5,-121 712.5,-121 712.5,-85 766.5,-85 766.5,-121"/>
<text text-anchor="middle" x="739.5" y="-99.3" font-family="Times,serif" font-size="14.00">io_y</text>
</g>
<!-- cluster_Mux5_Mux2_3_io_y&#45;&gt;cluster_Mux5_io_y -->
<g id="edge18" class="edge"><title>cluster_Mux5_Mux2_3_io_y&#45;&gt;cluster_Mux5_io_y</title>
<path fill="none" stroke="black" d="M766.676,-103C775.4,-103 785.281,-103 794.635,-103"/>
<polygon fill="black" stroke="black" points="794.883,-106.5 804.882,-103 794.882,-99.5001 794.883,-106.5"/>
</g>
<!-- op_bits_1 -->
<g id="node26" class="node"><title>op_bits_1</title>
<polygon fill="#d8bfd8" stroke="none" points="265,-213 265,-263 364,-263 364,-213 265,-213"/>
<polygon fill="none" stroke="black" points="265.5,-238 265.5,-263 306.5,-263 306.5,-238 265.5,-238"/>
<text text-anchor="start" x="281" y="-246.8" font-family="Times,serif" font-size="14.00">●</text>
<polygon fill="none" stroke="black" points="306.5,-213 306.5,-263 344.5,-263 344.5,-213 306.5,-213"/>
<text text-anchor="start" x="311.5" y="-234.3" font-family="Times,serif" font-size="14.00"> bits </text>
<polygon fill="none" stroke="black" points="344.5,-213 344.5,-263 364.5,-263 364.5,-213 344.5,-213"/>
<text text-anchor="start" x="349.5" y="-234.3" font-family="Times,serif" font-size="14.00">●</text>
<polygon fill="none" stroke="black" points="265.5,-213 265.5,-238 306.5,-238 306.5,-213 265.5,-213"/>
<text text-anchor="start" x="270.5" y="-221.8" font-family="Times,serif" font-size="14.00">(0, 0)</text>
</g>
<!-- op_bits_1&#45;&gt;cluster_Mux5_Mux2_io_sel -->
<g id="edge4" class="edge"><title>op_bits_1:out&#45;&gt;cluster_Mux5_Mux2_io_sel</title>
<path fill="none" stroke="black" d="M365.5,-238C387.475,-238 410.779,-230.414 429.253,-222.409"/>
<polygon fill="black" stroke="black" points="430.792,-225.554 438.441,-218.222 427.89,-219.184 430.792,-225.554"/>
</g>
<!-- op_bits_2&#45;&gt;op_bits_1 -->
<g id="edge1" class="edge"><title>op_bits_2:out&#45;&gt;op_bits_1:in1</title>
<path fill="none" stroke="black" d="M203.5,-296C203.5,-265.732 225.544,-253.528 254.454,-251.362"/>
<polygon fill="black" stroke="black" points="254.632,-254.858 264.5,-251 254.381,-247.862 254.632,-254.858"/>
</g>
<!-- op_bits_3 -->
<g id="node28" class="node"><title>op_bits_3</title>
<polygon fill="#d8bfd8" stroke="none" points="265,-427 265,-477 364,-477 364,-427 265,-427"/>
<polygon fill="none" stroke="black" points="265.5,-452 265.5,-477 306.5,-477 306.5,-452 265.5,-452"/>
<text text-anchor="start" x="281" y="-460.8" font-family="Times,serif" font-size="14.00">●</text>
<polygon fill="none" stroke="black" points="306.5,-427 306.5,-477 344.5,-477 344.5,-427 306.5,-427"/>
<text text-anchor="start" x="311.5" y="-448.3" font-family="Times,serif" font-size="14.00"> bits </text>
<polygon fill="none" stroke="black" points="344.5,-427 344.5,-477 364.5,-477 364.5,-427 344.5,-427"/>
<text text-anchor="start" x="349.5" y="-448.3" font-family="Times,serif" font-size="14.00">●</text>
<polygon fill="none" stroke="black" points="265.5,-427 265.5,-452 306.5,-452 306.5,-427 265.5,-427"/>
<text text-anchor="start" x="270.5" y="-435.8" font-family="Times,serif" font-size="14.00">(0, 0)</text>
</g>
<!-- op_bits_3&#45;&gt;cluster_Mux5_Mux2_1_io_sel -->
<g id="edge14" class="edge"><title>op_bits_3:out&#45;&gt;cluster_Mux5_Mux2_1_io_sel</title>
<path fill="none" stroke="black" d="M365.5,-452C386.296,-452 409.537,-451.33 428.273,-450.624"/>
<polygon fill="black" stroke="black" points="428.598,-454.114 438.451,-450.22 428.32,-447.119 428.598,-454.114"/>
</g>
<!-- op_bits_4&#45;&gt;op_bits_3 -->
<g id="edge15" class="edge"><title>op_bits_4:out&#45;&gt;op_bits_3:in1</title>
<path fill="none" stroke="black" d="M214.5,-452C233.515,-452 239.579,-460.915 254.142,-463.98"/>
<polygon fill="black" stroke="black" points="254.205,-467.503 264.5,-465 254.891,-460.537 254.205,-467.503"/>
</g>
<!-- op_bits_5 -->
<g id="node30" class="node"><title>op_bits_5</title>
<polygon fill="#d8bfd8" stroke="none" points="416,-510 416,-560 515,-560 515,-510 416,-510"/>
<polygon fill="none" stroke="black" points="416.5,-535 416.5,-560 457.5,-560 457.5,-535 416.5,-535"/>
<text text-anchor="start" x="432" y="-543.8" font-family="Times,serif" font-size="14.00">●</text>
<polygon fill="none" stroke="black" points="457.5,-510 457.5,-560 495.5,-560 495.5,-510 457.5,-510"/>
<text text-anchor="start" x="462.5" y="-531.3" font-family="Times,serif" font-size="14.00"> bits </text>
<polygon fill="none" stroke="black" points="495.5,-510 495.5,-560 515.5,-560 515.5,-510 495.5,-510"/>
<text text-anchor="start" x="500.5" y="-531.3" font-family="Times,serif" font-size="14.00">●</text>
<polygon fill="none" stroke="black" points="416.5,-510 416.5,-535 457.5,-535 457.5,-510 416.5,-510"/>
<text text-anchor="start" x="421.5" y="-518.8" font-family="Times,serif" font-size="14.00">(1, 1)</text>
</g>
<!-- op_bits_5&#45;&gt;cluster_Mux5_Mux2_2_io_sel -->
<g id="edge10" class="edge"><title>op_bits_5:out&#45;&gt;cluster_Mux5_Mux2_2_io_sel</title>
<path fill="none" stroke="black" d="M505.5,-509C505.5,-500.623 517.245,-508.087 523,-502 557.473,-465.542 524.36,-431.299 559,-395 564.672,-389.057 572.137,-384.692 579.774,-381.497"/>
<polygon fill="black" stroke="black" points="581.184,-384.709 589.419,-378.043 578.824,-378.119 581.184,-384.709"/>
</g>
<!-- op_bits_6&#45;&gt;op_bits_5 -->
<g id="edge2" class="edge"><title>op_bits_6:out&#45;&gt;op_bits_5:in1</title>
<path fill="none" stroke="black" d="M365.5,-533C384.894,-533 390.591,-543.482 405.491,-546.921"/>
<polygon fill="black" stroke="black" points="405.183,-550.408 415.5,-548 405.933,-543.449 405.183,-550.408"/>
</g>
<!-- op_bits_7&#45;&gt;cluster_Mux5_Mux2_3_io_sel -->
<g id="edge3" class="edge"><title>op_bits_7:out&#45;&gt;cluster_Mux5_Mux2_3_io_sel</title>
<path fill="none" stroke="black" d="M656.5,-497C656.5,-475.943 705.139,-349.709 727.496,-292.795"/>
<polygon fill="black" stroke="black" points="730.816,-293.918 731.223,-283.331 724.302,-291.354 730.816,-293.918"/>
</g>
</g>
</svg>
