<?xml version="1.0" encoding="UTF-8" standalone="no"?>
<?xml-stylesheet href="styles.css" type="text/css"?>
<!DOCTYPE svg PUBLIC "-//W3C//DTD SVG 1.1//EN"
 "http://www.w3.org/Graphics/SVG/1.1/DTD/svg11.dtd">
<!-- Generated by graphviz version 2.38.0 (20140413.2041)
 -->
<!-- Title: NamedMux8 Pages: 1 -->
<svg width="585pt" height="827pt"
 viewBox="0.00 0.00 585.00 827.00" xmlns="http://www.w3.org/2000/svg" xmlns:xlink="http://www.w3.org/1999/xlink">
<g id="graph0" class="graph" transform="scale(1 1) rotate(0) translate(4 823)">
<title>NamedMux8</title>
<polygon fill="white" stroke="none" points="-4,4 -4,-823 581,-823 581,4 -4,4"/>
<g id="clust1" class="cluster"><title>cluster_NamedMux8</title>
<polygon fill="#fff8dc" stroke="black" points="8,-8 8,-811 569,-811 569,-8 8,-8"/>
<text text-anchor="middle" x="288.5" y="-795.8" font-family="Times,serif" font-size="14.00">NamedMux8</text>
</g>
<g id="clust2" class="cluster"><title>cluster_NamedMux8_NamedMux4</title>
<g id="a_clust2"><a xlink:href="NamedMux4.dot.svg" xlink:title="NamedMux4">
<polygon fill="#add8e6" stroke="black" points="272,-369 272,-714 361,-714 361,-369 272,-369"/>
<text text-anchor="middle" x="316.5" y="-698.8" font-family="Times,serif" font-size="14.00">NamedMux4</text>
</a>
</g>
</g>
<g id="clust6" class="cluster"><title>cluster_NamedMux8_Mux2</title>
<g id="a_clust6"><a xlink:href="Mux2.dot.svg" xlink:title="Mux2">
<polygon fill="#add8e6" stroke="black" points="404,-261 404,-498 479,-498 479,-261 404,-261"/>
<text text-anchor="middle" x="441.5" y="-482.8" font-family="Times,serif" font-size="14.00">Mux2</text>
</a>
</g>
</g>
<g id="clust7" class="cluster"><title>cluster_NamedMux8_NamedMux4_1</title>
<g id="a_clust7"><a xlink:href="NamedMux4.dot.svg" xlink:title="NamedMux4_1">
<polygon fill="#add8e6" stroke="black" points="265,-16 265,-361 368,-361 368,-16 265,-16"/>
<text text-anchor="middle" x="316.5" y="-345.8" font-family="Times,serif" font-size="14.00">NamedMux4_1</text>
</a>
</g>
</g>
<!-- cluster_NamedMux8_io_sel -->
<g id="node1" class="node"><title>cluster_NamedMux8_io_sel</title>
<polygon fill="#cccccc" stroke="black" points="70,-707 16,-707 16,-671 70,-671 70,-707"/>
<text text-anchor="middle" x="43" y="-685.3" font-family="Times,serif" font-size="14.00">io_sel</text>
</g>
<!-- op_bits_3 -->
<g id="node27" class="node"><title>op_bits_3</title>
<polygon fill="#d8bfd8" stroke="none" points="114,-651 114,-701 213,-701 213,-651 114,-651"/>
<polygon fill="none" stroke="black" points="114.5,-676 114.5,-701 155.5,-701 155.5,-676 114.5,-676"/>
<text text-anchor="start" x="130" y="-684.8" font-family="Times,serif" font-size="14.00">●</text>
<polygon fill="none" stroke="black" points="155.5,-651 155.5,-701 193.5,-701 193.5,-651 155.5,-651"/>
<text text-anchor="start" x="160.5" y="-672.3" font-family="Times,serif" font-size="14.00"> bits </text>
<polygon fill="none" stroke="black" points="193.5,-651 193.5,-701 213.5,-701 213.5,-651 193.5,-651"/>
<text text-anchor="start" x="198.5" y="-672.3" font-family="Times,serif" font-size="14.00">●</text>
<polygon fill="none" stroke="black" points="114.5,-651 114.5,-676 155.5,-676 155.5,-651 114.5,-651"/>
<text text-anchor="start" x="119.5" y="-659.8" font-family="Times,serif" font-size="14.00">(1, 0)</text>
</g>
<!-- cluster_NamedMux8_io_sel&#45;&gt;op_bits_3 -->
<g id="edge12" class="edge"><title>cluster_NamedMux8_io_sel&#45;&gt;op_bits_3:in1</title>
<path fill="none" stroke="black" d="M70.0725,-689C80.0577,-689 91.7928,-689 103.189,-689"/>
<polygon fill="black" stroke="black" points="103.5,-692.5 113.5,-689 103.5,-685.5 103.5,-692.5"/>
</g>
<!-- op_bits_4 -->
<g id="node28" class="node"><title>op_bits_4</title>
<polygon fill="#d8bfd8" stroke="none" points="267,-726 267,-776 366,-776 366,-726 267,-726"/>
<polygon fill="none" stroke="black" points="267.5,-751 267.5,-776 308.5,-776 308.5,-751 267.5,-751"/>
<text text-anchor="start" x="283" y="-759.8" font-family="Times,serif" font-size="14.00">●</text>
<polygon fill="none" stroke="black" points="308.5,-726 308.5,-776 346.5,-776 346.5,-726 308.5,-726"/>
<text text-anchor="start" x="313.5" y="-747.3" font-family="Times,serif" font-size="14.00"> bits </text>
<polygon fill="none" stroke="black" points="346.5,-726 346.5,-776 366.5,-776 366.5,-726 346.5,-726"/>
<text text-anchor="start" x="351.5" y="-747.3" font-family="Times,serif" font-size="14.00">●</text>
<polygon fill="none" stroke="black" points="267.5,-726 267.5,-751 308.5,-751 308.5,-726 267.5,-726"/>
<text text-anchor="start" x="272.5" y="-734.8" font-family="Times,serif" font-size="14.00">(2, 2)</text>
</g>
<!-- cluster_NamedMux8_io_sel&#45;&gt;op_bits_4 -->
<g id="edge16" class="edge"><title>cluster_NamedMux8_io_sel&#45;&gt;op_bits_4:in1</title>
<path fill="none" stroke="black" d="M70.0941,-703.997C108.88,-724.901 184.875,-760.608 256.436,-763.774"/>
<polygon fill="black" stroke="black" points="256.424,-767.275 266.5,-764 256.581,-760.276 256.424,-767.275"/>
</g>
<!-- op_bits_5 -->
<g id="node29" class="node"><title>op_bits_5</title>
<polygon fill="#d8bfd8" stroke="none" points="114,-328 114,-378 213,-378 213,-328 114,-328"/>
<polygon fill="none" stroke="black" points="114.5,-353 114.5,-378 155.5,-378 155.5,-353 114.5,-353"/>
<text text-anchor="start" x="130" y="-361.8" font-family="Times,serif" font-size="14.00">●</text>
<polygon fill="none" stroke="black" points="155.5,-328 155.5,-378 193.5,-378 193.5,-328 155.5,-328"/>
<text text-anchor="start" x="160.5" y="-349.3" font-family="Times,serif" font-size="14.00"> bits </text>
<polygon fill="none" stroke="black" points="193.5,-328 193.5,-378 213.5,-378 213.5,-328 193.5,-328"/>
<text text-anchor="start" x="198.5" y="-349.3" font-family="Times,serif" font-size="14.00">●</text>
<polygon fill="none" stroke="black" points="114.5,-328 114.5,-353 155.5,-353 155.5,-328 114.5,-328"/>
<text text-anchor="start" x="119.5" y="-336.8" font-family="Times,serif" font-size="14.00">(1, 0)</text>
</g>
<!-- cluster_NamedMux8_io_sel&#45;&gt;op_bits_5 -->
<g id="edge1" class="edge"><title>cluster_NamedMux8_io_sel&#45;&gt;op_bits_5:in1</title>
<path fill="none" stroke="black" d="M45.9577,-670.814C51.1899,-626.626 67.7823,-510.721 106,-422 113.512,-404.562 128.127,-402.24 132.929,-388.936"/>
<polygon fill="black" stroke="black" points="136.396,-389.424 134.5,-379 129.481,-388.331 136.396,-389.424"/>
</g>
<!-- cluster_NamedMux8_io_xs_0 -->
<g id="node2" class="node"><title>cluster_NamedMux8_io_xs_0</title>
<polygon fill="#cccccc" stroke="black" points="193,-629 134,-629 134,-593 193,-593 193,-629"/>
<text text-anchor="middle" x="163.5" y="-607.3" font-family="Times,serif" font-size="14.00">io_xs_0</text>
</g>
<!-- cluster_NamedMux8_NamedMux4_io_xs_0 -->
<g id="node12" class="node"><title>cluster_NamedMux8_NamedMux4_io_xs_0</title>
<polygon fill="#cccccc" stroke="black" points="346,-629 287,-629 287,-593 346,-593 346,-629"/>
<text text-anchor="middle" x="316.5" y="-607.3" font-family="Times,serif" font-size="14.00">io_xs_0</text>
</g>
<!-- cluster_NamedMux8_io_xs_0&#45;&gt;cluster_NamedMux8_NamedMux4_io_xs_0 -->
<g id="edge4" class="edge"><title>cluster_NamedMux8_io_xs_0&#45;&gt;cluster_NamedMux8_NamedMux4_io_xs_0</title>
<path fill="none" stroke="black" d="M193.257,-611C216.872,-611 250.546,-611 276.573,-611"/>
<polygon fill="black" stroke="black" points="276.85,-614.5 286.85,-611 276.85,-607.5 276.85,-614.5"/>
</g>
<!-- cluster_NamedMux8_io_xs_1 -->
<g id="node3" class="node"><title>cluster_NamedMux8_io_xs_1</title>
<polygon fill="#cccccc" stroke="black" points="193,-575 134,-575 134,-539 193,-539 193,-575"/>
<text text-anchor="middle" x="163.5" y="-553.3" font-family="Times,serif" font-size="14.00">io_xs_1</text>
</g>
<!-- cluster_NamedMux8_NamedMux4_io_xs_1 -->
<g id="node13" class="node"><title>cluster_NamedMux8_NamedMux4_io_xs_1</title>
<polygon fill="#cccccc" stroke="black" points="346,-575 287,-575 287,-539 346,-539 346,-575"/>
<text text-anchor="middle" x="316.5" y="-553.3" font-family="Times,serif" font-size="14.00">io_xs_1</text>
</g>
<!-- cluster_NamedMux8_io_xs_1&#45;&gt;cluster_NamedMux8_NamedMux4_io_xs_1 -->
<g id="edge15" class="edge"><title>cluster_NamedMux8_io_xs_1&#45;&gt;cluster_NamedMux8_NamedMux4_io_xs_1</title>
<path fill="none" stroke="black" d="M193.257,-557C216.872,-557 250.546,-557 276.573,-557"/>
<polygon fill="black" stroke="black" points="276.85,-560.5 286.85,-557 276.85,-553.5 276.85,-560.5"/>
</g>
<!-- cluster_NamedMux8_io_xs_2 -->
<g id="node4" class="node"><title>cluster_NamedMux8_io_xs_2</title>
<polygon fill="#cccccc" stroke="black" points="193,-521 134,-521 134,-485 193,-485 193,-521"/>
<text text-anchor="middle" x="163.5" y="-499.3" font-family="Times,serif" font-size="14.00">io_xs_2</text>
</g>
<!-- cluster_NamedMux8_NamedMux4_io_xs_2 -->
<g id="node14" class="node"><title>cluster_NamedMux8_NamedMux4_io_xs_2</title>
<polygon fill="#cccccc" stroke="black" points="346,-521 287,-521 287,-485 346,-485 346,-521"/>
<text text-anchor="middle" x="316.5" y="-499.3" font-family="Times,serif" font-size="14.00">io_xs_2</text>
</g>
<!-- cluster_NamedMux8_io_xs_2&#45;&gt;cluster_NamedMux8_NamedMux4_io_xs_2 -->
<g id="edge13" class="edge"><title>cluster_NamedMux8_io_xs_2&#45;&gt;cluster_NamedMux8_NamedMux4_io_xs_2</title>
<path fill="none" stroke="black" d="M193.257,-503C216.872,-503 250.546,-503 276.573,-503"/>
<polygon fill="black" stroke="black" points="276.85,-506.5 286.85,-503 276.85,-499.5 276.85,-506.5"/>
</g>
<!-- cluster_NamedMux8_io_xs_3 -->
<g id="node5" class="node"><title>cluster_NamedMux8_io_xs_3</title>
<polygon fill="#cccccc" stroke="black" points="193,-467 134,-467 134,-431 193,-431 193,-467"/>
<text text-anchor="middle" x="163.5" y="-445.3" font-family="Times,serif" font-size="14.00">io_xs_3</text>
</g>
<!-- cluster_NamedMux8_NamedMux4_io_xs_3 -->
<g id="node15" class="node"><title>cluster_NamedMux8_NamedMux4_io_xs_3</title>
<polygon fill="#cccccc" stroke="black" points="346,-467 287,-467 287,-431 346,-431 346,-467"/>
<text text-anchor="middle" x="316.5" y="-445.3" font-family="Times,serif" font-size="14.00">io_xs_3</text>
</g>
<!-- cluster_NamedMux8_io_xs_3&#45;&gt;cluster_NamedMux8_NamedMux4_io_xs_3 -->
<g id="edge5" class="edge"><title>cluster_NamedMux8_io_xs_3&#45;&gt;cluster_NamedMux8_NamedMux4_io_xs_3</title>
<path fill="none" stroke="black" d="M193.257,-449C216.872,-449 250.546,-449 276.573,-449"/>
<polygon fill="black" stroke="black" points="276.85,-452.5 286.85,-449 276.85,-445.5 276.85,-452.5"/>
</g>
<!-- cluster_NamedMux8_io_xs_4 -->
<g id="node6" class="node"><title>cluster_NamedMux8_io_xs_4</title>
<polygon fill="#cccccc" stroke="black" points="193,-276 134,-276 134,-240 193,-240 193,-276"/>
<text text-anchor="middle" x="163.5" y="-254.3" font-family="Times,serif" font-size="14.00">io_xs_4</text>
</g>
<!-- cluster_NamedMux8_NamedMux4_1_io_xs_0 -->
<g id="node22" class="node"><title>cluster_NamedMux8_NamedMux4_1_io_xs_0</title>
<polygon fill="#cccccc" stroke="black" points="346,-276 287,-276 287,-240 346,-240 346,-276"/>
<text text-anchor="middle" x="316.5" y="-254.3" font-family="Times,serif" font-size="14.00">io_xs_0</text>
</g>
<!-- cluster_NamedMux8_io_xs_4&#45;&gt;cluster_NamedMux8_NamedMux4_1_io_xs_0 -->
<g id="edge8" class="edge"><title>cluster_NamedMux8_io_xs_4&#45;&gt;cluster_NamedMux8_NamedMux4_1_io_xs_0</title>
<path fill="none" stroke="black" d="M193.257,-258C216.872,-258 250.546,-258 276.573,-258"/>
<polygon fill="black" stroke="black" points="276.85,-261.5 286.85,-258 276.85,-254.5 276.85,-261.5"/>
</g>
<!-- cluster_NamedMux8_io_xs_5 -->
<g id="node7" class="node"><title>cluster_NamedMux8_io_xs_5</title>
<polygon fill="#cccccc" stroke="black" points="193,-222 134,-222 134,-186 193,-186 193,-222"/>
<text text-anchor="middle" x="163.5" y="-200.3" font-family="Times,serif" font-size="14.00">io_xs_5</text>
</g>
<!-- cluster_NamedMux8_NamedMux4_1_io_xs_1 -->
<g id="node23" class="node"><title>cluster_NamedMux8_NamedMux4_1_io_xs_1</title>
<polygon fill="#cccccc" stroke="black" points="346,-222 287,-222 287,-186 346,-186 346,-222"/>
<text text-anchor="middle" x="316.5" y="-200.3" font-family="Times,serif" font-size="14.00">io_xs_1</text>
</g>
<!-- cluster_NamedMux8_io_xs_5&#45;&gt;cluster_NamedMux8_NamedMux4_1_io_xs_1 -->
<g id="edge3" class="edge"><title>cluster_NamedMux8_io_xs_5&#45;&gt;cluster_NamedMux8_NamedMux4_1_io_xs_1</title>
<path fill="none" stroke="black" d="M193.257,-204C216.872,-204 250.546,-204 276.573,-204"/>
<polygon fill="black" stroke="black" points="276.85,-207.5 286.85,-204 276.85,-200.5 276.85,-207.5"/>
</g>
<!-- cluster_NamedMux8_io_xs_6 -->
<g id="node8" class="node"><title>cluster_NamedMux8_io_xs_6</title>
<polygon fill="#cccccc" stroke="black" points="193,-168 134,-168 134,-132 193,-132 193,-168"/>
<text text-anchor="middle" x="163.5" y="-146.3" font-family="Times,serif" font-size="14.00">io_xs_6</text>
</g>
<!-- cluster_NamedMux8_NamedMux4_1_io_xs_2 -->
<g id="node24" class="node"><title>cluster_NamedMux8_NamedMux4_1_io_xs_2</title>
<polygon fill="#cccccc" stroke="black" points="346,-168 287,-168 287,-132 346,-132 346,-168"/>
<text text-anchor="middle" x="316.5" y="-146.3" font-family="Times,serif" font-size="14.00">io_xs_2</text>
</g>
<!-- cluster_NamedMux8_io_xs_6&#45;&gt;cluster_NamedMux8_NamedMux4_1_io_xs_2 -->
<g id="edge14" class="edge"><title>cluster_NamedMux8_io_xs_6&#45;&gt;cluster_NamedMux8_NamedMux4_1_io_xs_2</title>
<path fill="none" stroke="black" d="M193.257,-150C216.872,-150 250.546,-150 276.573,-150"/>
<polygon fill="black" stroke="black" points="276.85,-153.5 286.85,-150 276.85,-146.5 276.85,-153.5"/>
</g>
<!-- cluster_NamedMux8_io_xs_7 -->
<g id="node9" class="node"><title>cluster_NamedMux8_io_xs_7</title>
<polygon fill="#cccccc" stroke="black" points="193,-114 134,-114 134,-78 193,-78 193,-114"/>
<text text-anchor="middle" x="163.5" y="-92.3" font-family="Times,serif" font-size="14.00">io_xs_7</text>
</g>
<!-- cluster_NamedMux8_NamedMux4_1_io_xs_3 -->
<g id="node25" class="node"><title>cluster_NamedMux8_NamedMux4_1_io_xs_3</title>
<polygon fill="#cccccc" stroke="black" points="346,-114 287,-114 287,-78 346,-78 346,-114"/>
<text text-anchor="middle" x="316.5" y="-92.3" font-family="Times,serif" font-size="14.00">io_xs_3</text>
</g>
<!-- cluster_NamedMux8_io_xs_7&#45;&gt;cluster_NamedMux8_NamedMux4_1_io_xs_3 -->
<g id="edge9" class="edge"><title>cluster_NamedMux8_io_xs_7&#45;&gt;cluster_NamedMux8_NamedMux4_1_io_xs_3</title>
<path fill="none" stroke="black" d="M193.257,-96C216.872,-96 250.546,-96 276.573,-96"/>
<polygon fill="black" stroke="black" points="276.85,-99.5001 286.85,-96 276.85,-92.5001 276.85,-99.5001"/>
</g>
<!-- cluster_NamedMux8_io_y -->
<g id="node10" class="node"><title>cluster_NamedMux8_io_y</title>
<polygon fill="#e0ffff" stroke="black" points="561,-305 507,-305 507,-269 561,-269 561,-305"/>
<text text-anchor="middle" x="534" y="-283.3" font-family="Times,serif" font-size="14.00">io_y</text>
</g>
<!-- cluster_NamedMux8_NamedMux4_io_sel -->
<g id="node11" class="node"><title>cluster_NamedMux8_NamedMux4_io_sel</title>
<polygon fill="#cccccc" stroke="black" points="343.5,-683 289.5,-683 289.5,-647 343.5,-647 343.5,-683"/>
<text text-anchor="middle" x="316.5" y="-661.3" font-family="Times,serif" font-size="14.00">io_sel</text>
</g>
<!-- cluster_NamedMux8_NamedMux4_io_y -->
<g id="node16" class="node"><title>cluster_NamedMux8_NamedMux4_io_y</title>
<polygon fill="#e0ffff" stroke="black" points="343.5,-413 289.5,-413 289.5,-377 343.5,-377 343.5,-413"/>
<text text-anchor="middle" x="316.5" y="-391.3" font-family="Times,serif" font-size="14.00">io_y</text>
</g>
<!-- cluster_NamedMux8_Mux2_io_xs_0 -->
<g id="node18" class="node"><title>cluster_NamedMux8_Mux2_io_xs_0</title>
<polygon fill="#cccccc" stroke="black" points="471,-413 412,-413 412,-377 471,-377 471,-413"/>
<text text-anchor="middle" x="441.5" y="-391.3" font-family="Times,serif" font-size="14.00">io_xs_0</text>
</g>
<!-- cluster_NamedMux8_NamedMux4_io_y&#45;&gt;cluster_NamedMux8_Mux2_io_xs_0 -->
<g id="edge17" class="edge"><title>cluster_NamedMux8_NamedMux4_io_y&#45;&gt;cluster_NamedMux8_Mux2_io_xs_0</title>
<path fill="none" stroke="black" d="M343.585,-395C360.483,-395 382.792,-395 401.746,-395"/>
<polygon fill="black" stroke="black" points="401.875,-398.5 411.875,-395 401.875,-391.5 401.875,-398.5"/>
</g>
<!-- cluster_NamedMux8_Mux2_io_sel -->
<g id="node17" class="node"><title>cluster_NamedMux8_Mux2_io_sel</title>
<polygon fill="#cccccc" stroke="black" points="468.5,-467 414.5,-467 414.5,-431 468.5,-431 468.5,-467"/>
<text text-anchor="middle" x="441.5" y="-445.3" font-family="Times,serif" font-size="14.00">io_sel</text>
</g>
<!-- cluster_NamedMux8_Mux2_io_xs_1 -->
<g id="node19" class="node"><title>cluster_NamedMux8_Mux2_io_xs_1</title>
<polygon fill="#cccccc" stroke="black" points="471,-359 412,-359 412,-323 471,-323 471,-359"/>
<text text-anchor="middle" x="441.5" y="-337.3" font-family="Times,serif" font-size="14.00">io_xs_1</text>
</g>
<!-- cluster_NamedMux8_Mux2_io_y -->
<g id="node20" class="node"><title>cluster_NamedMux8_Mux2_io_y</title>
<polygon fill="#e0ffff" stroke="black" points="468.5,-305 414.5,-305 414.5,-269 468.5,-269 468.5,-305"/>
<text text-anchor="middle" x="441.5" y="-283.3" font-family="Times,serif" font-size="14.00">io_y</text>
</g>
<!-- cluster_NamedMux8_Mux2_io_y&#45;&gt;cluster_NamedMux8_io_y -->
<g id="edge6" class="edge"><title>cluster_NamedMux8_Mux2_io_y&#45;&gt;cluster_NamedMux8_io_y</title>
<path fill="none" stroke="black" d="M468.676,-287C477.4,-287 487.281,-287 496.635,-287"/>
<polygon fill="black" stroke="black" points="496.883,-290.5 506.882,-287 496.882,-283.5 496.883,-290.5"/>
</g>
<!-- cluster_NamedMux8_NamedMux4_1_io_sel -->
<g id="node21" class="node"><title>cluster_NamedMux8_NamedMux4_1_io_sel</title>
<polygon fill="#cccccc" stroke="black" points="343.5,-330 289.5,-330 289.5,-294 343.5,-294 343.5,-330"/>
<text text-anchor="middle" x="316.5" y="-308.3" font-family="Times,serif" font-size="14.00">io_sel</text>
</g>
<!-- cluster_NamedMux8_NamedMux4_1_io_y -->
<g id="node26" class="node"><title>cluster_NamedMux8_NamedMux4_1_io_y</title>
<polygon fill="#e0ffff" stroke="black" points="343.5,-60 289.5,-60 289.5,-24 343.5,-24 343.5,-60"/>
<text text-anchor="middle" x="316.5" y="-38.3" font-family="Times,serif" font-size="14.00">io_y</text>
</g>
<!-- cluster_NamedMux8_NamedMux4_1_io_y&#45;&gt;cluster_NamedMux8_Mux2_io_xs_1 -->
<g id="edge11" class="edge"><title>cluster_NamedMux8_NamedMux4_1_io_y&#45;&gt;cluster_NamedMux8_Mux2_io_xs_1</title>
<path fill="none" stroke="black" d="M343.688,-48.4183C354.769,-52.4832 366.764,-58.9379 374,-69 438.046,-158.066 348.743,-219.23 404,-314 404.387,-314.664 404.798,-315.316 405.229,-315.957"/>
<polygon fill="black" stroke="black" points="402.662,-318.34 411.839,-323.635 407.967,-313.773 402.662,-318.34"/>
</g>
<!-- op_bits_3&#45;&gt;cluster_NamedMux8_NamedMux4_io_sel -->
<g id="edge10" class="edge"><title>op_bits_3:out&#45;&gt;cluster_NamedMux8_NamedMux4_io_sel</title>
<path fill="none" stroke="black" d="M214.5,-676C236.079,-676 260.101,-673.488 279.301,-670.864"/>
<polygon fill="black" stroke="black" points="280.025,-674.296 289.426,-669.411 279.03,-667.367 280.025,-674.296"/>
</g>
<!-- op_bits_4&#45;&gt;cluster_NamedMux8_Mux2_io_sel -->
<g id="edge2" class="edge"><title>op_bits_4:out&#45;&gt;cluster_NamedMux8_Mux2_io_sel</title>
<path fill="none" stroke="black" d="M356.5,-725C356.5,-716.623 368.5,-724.318 374,-718 434.877,-648.073 441.783,-530.978 441.478,-477.363"/>
<polygon fill="black" stroke="black" points="444.976,-477.169 441.327,-467.222 437.976,-477.273 444.976,-477.169"/>
</g>
<!-- op_bits_5&#45;&gt;cluster_NamedMux8_NamedMux4_1_io_sel -->
<g id="edge7" class="edge"><title>op_bits_5:out&#45;&gt;cluster_NamedMux8_NamedMux4_1_io_sel</title>
<path fill="none" stroke="black" d="M214.5,-353C237.594,-353 261.621,-343.684 280.444,-333.933"/>
<polygon fill="black" stroke="black" points="282.126,-337.002 289.239,-329.15 278.782,-330.853 282.126,-337.002"/>
</g>
</g>
</svg>
