<?xml version="1.0" encoding="UTF-8" standalone="no"?>
<?xml-stylesheet href="styles.css" type="text/css"?>
<!DOCTYPE svg PUBLIC "-//W3C//DTD SVG 1.1//EN"
 "http://www.w3.org/Graphics/SVG/1.1/DTD/svg11.dtd">
<!-- Generated by graphviz version 2.38.0 (20140413.2041)
 -->
<!-- Title: NamedMux5 Pages: 1 -->
<svg width="581pt" height="520pt"
 viewBox="0.00 0.00 581.00 520.00" xmlns="http://www.w3.org/2000/svg" xmlns:xlink="http://www.w3.org/1999/xlink">
<g id="graph0" class="graph" transform="scale(1 1) rotate(0) translate(4 516)">
<title>NamedMux5</title>
<polygon fill="white" stroke="none" points="-4,4 -4,-516 577,-516 577,4 -4,4"/>
<g id="clust1" class="cluster"><title>cluster_NamedMux5</title>
<polygon fill="#fff8dc" stroke="black" points="8,-8 8,-504 565,-504 565,-8 8,-8"/>
<text text-anchor="middle" x="286.5" y="-488.8" font-family="Times,serif" font-size="14.00">NamedMux5</text>
</g>
<g id="clust2" class="cluster"><title>cluster_NamedMux5_NamedMux4</title>
<g id="a_clust2"><a xlink:href="NamedMux4.dot.svg" xlink:title="NamedMux4">
<polygon fill="#add8e6" stroke="black" points="270,-62 270,-407 359,-407 359,-62 270,-62"/>
<text text-anchor="middle" x="314.5" y="-391.8" font-family="Times,serif" font-size="14.00">NamedMux4</text>
</a>
</g>
</g>
<g id="clust6" class="cluster"><title>cluster_NamedMux5_Mux2</title>
<g id="a_clust6"><a xlink:href="Mux2.dot.svg" xlink:title="Mux2">
<polygon fill="#add8e6" stroke="black" points="400,-16 400,-253 475,-253 475,-16 400,-16"/>
<text text-anchor="middle" x="437.5" y="-237.8" font-family="Times,serif" font-size="14.00">Mux2</text>
</a>
</g>
</g>
<!-- cluster_NamedMux5_clock -->
<g id="node1" class="node"><title>cluster_NamedMux5_clock</title>
<polygon fill="#cccccc" stroke="black" points="70,-473 16,-473 16,-437 70,-437 70,-473"/>
<text text-anchor="middle" x="43" y="-451.3" font-family="Times,serif" font-size="14.00">clock</text>
</g>
<!-- cluster_NamedMux5_reset -->
<g id="node2" class="node"><title>cluster_NamedMux5_reset</title>
<polygon fill="#cccccc" stroke="black" points="70,-419 16,-419 16,-383 70,-383 70,-419"/>
<text text-anchor="middle" x="43" y="-397.3" font-family="Times,serif" font-size="14.00">reset</text>
</g>
<!-- cluster_NamedMux5_io_sel -->
<g id="node3" class="node"><title>cluster_NamedMux5_io_sel</title>
<polygon fill="#cccccc" stroke="black" points="70,-365 16,-365 16,-329 70,-329 70,-365"/>
<text text-anchor="middle" x="43" y="-343.3" font-family="Times,serif" font-size="14.00">io_sel</text>
</g>
<!-- op_bits_1 -->
<g id="node20" class="node"><title>op_bits_1</title>
<polygon fill="#d8bfd8" stroke="none" points="114,-344 114,-394 213,-394 213,-344 114,-344"/>
<polygon fill="none" stroke="black" points="114.5,-369 114.5,-394 155.5,-394 155.5,-369 114.5,-369"/>
<text text-anchor="start" x="130" y="-377.8" font-family="Times,serif" font-size="14.00">●</text>
<polygon fill="none" stroke="black" points="155.5,-344 155.5,-394 193.5,-394 193.5,-344 155.5,-344"/>
<text text-anchor="start" x="160.5" y="-365.3" font-family="Times,serif" font-size="14.00"> bits </text>
<polygon fill="none" stroke="black" points="193.5,-344 193.5,-394 213.5,-394 213.5,-344 193.5,-344"/>
<text text-anchor="start" x="198.5" y="-365.3" font-family="Times,serif" font-size="14.00">●</text>
<polygon fill="none" stroke="black" points="114.5,-344 114.5,-369 155.5,-369 155.5,-344 114.5,-344"/>
<text text-anchor="start" x="119.5" y="-352.8" font-family="Times,serif" font-size="14.00">(1, 0)</text>
</g>
<!-- cluster_NamedMux5_io_sel&#45;&gt;op_bits_1 -->
<g id="edge3" class="edge"><title>cluster_NamedMux5_io_sel&#45;&gt;op_bits_1:in1</title>
<path fill="none" stroke="black" d="M66.7055,-365.115C77.0183,-371.921 89.8866,-378.602 103.234,-381.035"/>
<polygon fill="black" stroke="black" points="103.216,-384.549 113.5,-382 103.871,-377.58 103.216,-384.549"/>
</g>
<!-- op_bits_2 -->
<g id="node21" class="node"><title>op_bits_2</title>
<polygon fill="#d8bfd8" stroke="none" points="265,-419 265,-469 364,-469 364,-419 265,-419"/>
<polygon fill="none" stroke="black" points="265.5,-444 265.5,-469 306.5,-469 306.5,-444 265.5,-444"/>
<text text-anchor="start" x="281" y="-452.8" font-family="Times,serif" font-size="14.00">●</text>
<polygon fill="none" stroke="black" points="306.5,-419 306.5,-469 344.5,-469 344.5,-419 306.5,-419"/>
<text text-anchor="start" x="311.5" y="-440.3" font-family="Times,serif" font-size="14.00"> bits </text>
<polygon fill="none" stroke="black" points="344.5,-419 344.5,-469 364.5,-469 364.5,-419 344.5,-419"/>
<text text-anchor="start" x="349.5" y="-440.3" font-family="Times,serif" font-size="14.00">●</text>
<polygon fill="none" stroke="black" points="265.5,-419 265.5,-444 306.5,-444 306.5,-419 265.5,-419"/>
<text text-anchor="start" x="270.5" y="-427.8" font-family="Times,serif" font-size="14.00">(2, 2)</text>
</g>
<!-- cluster_NamedMux5_io_sel&#45;&gt;op_bits_2 -->
<g id="edge6" class="edge"><title>cluster_NamedMux5_io_sel&#45;&gt;op_bits_2:in1</title>
<path fill="none" stroke="black" d="M61.7553,-365.002C78.2067,-381.545 100.885,-403.953 106,-407 166.484,-443.034 188.556,-455.801 254.45,-456.918"/>
<polygon fill="black" stroke="black" points="254.472,-460.418 264.5,-457 254.529,-453.419 254.472,-460.418"/>
</g>
<!-- cluster_NamedMux5_io_xs_0 -->
<g id="node4" class="node"><title>cluster_NamedMux5_io_xs_0</title>
<polygon fill="#cccccc" stroke="black" points="193,-322 134,-322 134,-286 193,-286 193,-322"/>
<text text-anchor="middle" x="163.5" y="-300.3" font-family="Times,serif" font-size="14.00">io_xs_0</text>
</g>
<!-- cluster_NamedMux5_NamedMux4_io_xs_0 -->
<g id="node11" class="node"><title>cluster_NamedMux5_NamedMux4_io_xs_0</title>
<polygon fill="#cccccc" stroke="black" points="344,-322 285,-322 285,-286 344,-286 344,-322"/>
<text text-anchor="middle" x="314.5" y="-300.3" font-family="Times,serif" font-size="14.00">io_xs_0</text>
</g>
<!-- cluster_NamedMux5_io_xs_0&#45;&gt;cluster_NamedMux5_NamedMux4_io_xs_0 -->
<g id="edge4" class="edge"><title>cluster_NamedMux5_io_xs_0&#45;&gt;cluster_NamedMux5_NamedMux4_io_xs_0</title>
<path fill="none" stroke="black" d="M193.229,-304C216.418,-304 249.268,-304 274.778,-304"/>
<polygon fill="black" stroke="black" points="274.86,-307.5 284.859,-304 274.859,-300.5 274.86,-307.5"/>
</g>
<!-- cluster_NamedMux5_io_xs_1 -->
<g id="node5" class="node"><title>cluster_NamedMux5_io_xs_1</title>
<polygon fill="#cccccc" stroke="black" points="193,-268 134,-268 134,-232 193,-232 193,-268"/>
<text text-anchor="middle" x="163.5" y="-246.3" font-family="Times,serif" font-size="14.00">io_xs_1</text>
</g>
<!-- cluster_NamedMux5_NamedMux4_io_xs_1 -->
<g id="node12" class="node"><title>cluster_NamedMux5_NamedMux4_io_xs_1</title>
<polygon fill="#cccccc" stroke="black" points="344,-268 285,-268 285,-232 344,-232 344,-268"/>
<text text-anchor="middle" x="314.5" y="-246.3" font-family="Times,serif" font-size="14.00">io_xs_1</text>
</g>
<!-- cluster_NamedMux5_io_xs_1&#45;&gt;cluster_NamedMux5_NamedMux4_io_xs_1 -->
<g id="edge10" class="edge"><title>cluster_NamedMux5_io_xs_1&#45;&gt;cluster_NamedMux5_NamedMux4_io_xs_1</title>
<path fill="none" stroke="black" d="M193.229,-250C216.418,-250 249.268,-250 274.778,-250"/>
<polygon fill="black" stroke="black" points="274.86,-253.5 284.859,-250 274.859,-246.5 274.86,-253.5"/>
</g>
<!-- cluster_NamedMux5_io_xs_2 -->
<g id="node6" class="node"><title>cluster_NamedMux5_io_xs_2</title>
<polygon fill="#cccccc" stroke="black" points="193,-214 134,-214 134,-178 193,-178 193,-214"/>
<text text-anchor="middle" x="163.5" y="-192.3" font-family="Times,serif" font-size="14.00">io_xs_2</text>
</g>
<!-- cluster_NamedMux5_NamedMux4_io_xs_2 -->
<g id="node13" class="node"><title>cluster_NamedMux5_NamedMux4_io_xs_2</title>
<polygon fill="#cccccc" stroke="black" points="344,-214 285,-214 285,-178 344,-178 344,-214"/>
<text text-anchor="middle" x="314.5" y="-192.3" font-family="Times,serif" font-size="14.00">io_xs_2</text>
</g>
<!-- cluster_NamedMux5_io_xs_2&#45;&gt;cluster_NamedMux5_NamedMux4_io_xs_2 -->
<g id="edge7" class="edge"><title>cluster_NamedMux5_io_xs_2&#45;&gt;cluster_NamedMux5_NamedMux4_io_xs_2</title>
<path fill="none" stroke="black" d="M193.229,-196C216.418,-196 249.268,-196 274.778,-196"/>
<polygon fill="black" stroke="black" points="274.86,-199.5 284.859,-196 274.859,-192.5 274.86,-199.5"/>
</g>
<!-- cluster_NamedMux5_io_xs_3 -->
<g id="node7" class="node"><title>cluster_NamedMux5_io_xs_3</title>
<polygon fill="#cccccc" stroke="black" points="193,-160 134,-160 134,-124 193,-124 193,-160"/>
<text text-anchor="middle" x="163.5" y="-138.3" font-family="Times,serif" font-size="14.00">io_xs_3</text>
</g>
<!-- cluster_NamedMux5_NamedMux4_io_xs_3 -->
<g id="node14" class="node"><title>cluster_NamedMux5_NamedMux4_io_xs_3</title>
<polygon fill="#cccccc" stroke="black" points="344,-160 285,-160 285,-124 344,-124 344,-160"/>
<text text-anchor="middle" x="314.5" y="-138.3" font-family="Times,serif" font-size="14.00">io_xs_3</text>
</g>
<!-- cluster_NamedMux5_io_xs_3&#45;&gt;cluster_NamedMux5_NamedMux4_io_xs_3 -->
<g id="edge1" class="edge"><title>cluster_NamedMux5_io_xs_3&#45;&gt;cluster_NamedMux5_NamedMux4_io_xs_3</title>
<path fill="none" stroke="black" d="M193.229,-142C216.418,-142 249.268,-142 274.778,-142"/>
<polygon fill="black" stroke="black" points="274.86,-145.5 284.859,-142 274.859,-138.5 274.86,-145.5"/>
</g>
<!-- cluster_NamedMux5_io_xs_4 -->
<g id="node8" class="node"><title>cluster_NamedMux5_io_xs_4</title>
<polygon fill="#cccccc" stroke="black" points="344,-52 285,-52 285,-16 344,-16 344,-52"/>
<text text-anchor="middle" x="314.5" y="-30.3" font-family="Times,serif" font-size="14.00">io_xs_4</text>
</g>
<!-- cluster_NamedMux5_Mux2_io_xs_1 -->
<g id="node18" class="node"><title>cluster_NamedMux5_Mux2_io_xs_1</title>
<polygon fill="#cccccc" stroke="black" points="467,-114 408,-114 408,-78 467,-78 467,-114"/>
<text text-anchor="middle" x="437.5" y="-92.3" font-family="Times,serif" font-size="14.00">io_xs_1</text>
</g>
<!-- cluster_NamedMux5_io_xs_4&#45;&gt;cluster_NamedMux5_Mux2_io_xs_1 -->
<g id="edge5" class="edge"><title>cluster_NamedMux5_io_xs_4&#45;&gt;cluster_NamedMux5_Mux2_io_xs_1</title>
<path fill="none" stroke="black" d="M344.285,-45.3717C353.274,-49.1499 363.15,-53.5375 372,-58 380.871,-62.4734 390.196,-67.6636 398.912,-72.7437"/>
<polygon fill="black" stroke="black" points="397.342,-75.8816 407.731,-77.9631 400.908,-69.8576 397.342,-75.8816"/>
</g>
<!-- cluster_NamedMux5_io_y -->
<g id="node9" class="node"><title>cluster_NamedMux5_io_y</title>
<polygon fill="#e0ffff" stroke="black" points="557,-60 503,-60 503,-24 557,-24 557,-60"/>
<text text-anchor="middle" x="530" y="-38.3" font-family="Times,serif" font-size="14.00">io_y</text>
</g>
<!-- cluster_NamedMux5_NamedMux4_io_sel -->
<g id="node10" class="node"><title>cluster_NamedMux5_NamedMux4_io_sel</title>
<polygon fill="#cccccc" stroke="black" points="341.5,-376 287.5,-376 287.5,-340 341.5,-340 341.5,-376"/>
<text text-anchor="middle" x="314.5" y="-354.3" font-family="Times,serif" font-size="14.00">io_sel</text>
</g>
<!-- cluster_NamedMux5_NamedMux4_io_y -->
<g id="node15" class="node"><title>cluster_NamedMux5_NamedMux4_io_y</title>
<polygon fill="#e0ffff" stroke="black" points="341.5,-106 287.5,-106 287.5,-70 341.5,-70 341.5,-106"/>
<text text-anchor="middle" x="314.5" y="-84.3" font-family="Times,serif" font-size="14.00">io_y</text>
</g>
<!-- cluster_NamedMux5_Mux2_io_xs_0 -->
<g id="node17" class="node"><title>cluster_NamedMux5_Mux2_io_xs_0</title>
<polygon fill="#cccccc" stroke="black" points="467,-168 408,-168 408,-132 467,-132 467,-168"/>
<text text-anchor="middle" x="437.5" y="-146.3" font-family="Times,serif" font-size="14.00">io_xs_0</text>
</g>
<!-- cluster_NamedMux5_NamedMux4_io_y&#45;&gt;cluster_NamedMux5_Mux2_io_xs_0 -->
<g id="edge9" class="edge"><title>cluster_NamedMux5_NamedMux4_io_y&#45;&gt;cluster_NamedMux5_Mux2_io_xs_0</title>
<path fill="none" stroke="black" d="M341.514,-100.089C351.145,-104.654 362.121,-109.963 372,-115 380.761,-119.467 390.103,-124.422 398.878,-129.164"/>
<polygon fill="black" stroke="black" points="397.313,-132.297 407.77,-134.001 400.658,-126.148 397.313,-132.297"/>
</g>
<!-- cluster_NamedMux5_Mux2_io_sel -->
<g id="node16" class="node"><title>cluster_NamedMux5_Mux2_io_sel</title>
<polygon fill="#cccccc" stroke="black" points="464.5,-222 410.5,-222 410.5,-186 464.5,-186 464.5,-222"/>
<text text-anchor="middle" x="437.5" y="-200.3" font-family="Times,serif" font-size="14.00">io_sel</text>
</g>
<!-- cluster_NamedMux5_Mux2_io_y -->
<g id="node19" class="node"><title>cluster_NamedMux5_Mux2_io_y</title>
<polygon fill="#e0ffff" stroke="black" points="464.5,-60 410.5,-60 410.5,-24 464.5,-24 464.5,-60"/>
<text text-anchor="middle" x="437.5" y="-38.3" font-family="Times,serif" font-size="14.00">io_y</text>
</g>
<!-- cluster_NamedMux5_Mux2_io_y&#45;&gt;cluster_NamedMux5_io_y -->
<g id="edge11" class="edge"><title>cluster_NamedMux5_Mux2_io_y&#45;&gt;cluster_NamedMux5_io_y</title>
<path fill="none" stroke="black" d="M464.676,-42C473.4,-42 483.281,-42 492.635,-42"/>
<polygon fill="black" stroke="black" points="492.883,-45.5001 502.882,-42 492.882,-38.5001 492.883,-45.5001"/>
</g>
<!-- op_bits_1&#45;&gt;cluster_NamedMux5_NamedMux4_io_sel -->
<g id="edge2" class="edge"><title>op_bits_1:out&#45;&gt;cluster_NamedMux5_NamedMux4_io_sel</title>
<path fill="none" stroke="black" d="M214.5,-369C235.269,-369 258.339,-366.579 276.981,-364.009"/>
<polygon fill="black" stroke="black" points="277.723,-367.438 287.116,-362.538 276.717,-360.51 277.723,-367.438"/>
</g>
<!-- op_bits_2&#45;&gt;cluster_NamedMux5_Mux2_io_sel -->
<g id="edge8" class="edge"><title>op_bits_2:out&#45;&gt;cluster_NamedMux5_Mux2_io_sel</title>
<path fill="none" stroke="black" d="M354.5,-418C354.5,-409.623 366.313,-417.151 372,-411 418.877,-360.294 431.692,-275.959 435.19,-232.233"/>
<polygon fill="black" stroke="black" points="438.697,-232.253 435.894,-222.036 431.713,-231.771 438.697,-232.253"/>
</g>
</g>
</svg>
