<?xml version="1.0" encoding="UTF-8" standalone="no"?>
<?xml-stylesheet href="styles.css" type="text/css"?>
<!DOCTYPE svg PUBLIC "-//W3C//DTD SVG 1.1//EN"
 "http://www.w3.org/Graphics/SVG/1.1/DTD/svg11.dtd">
<!-- Generated by graphviz version 2.38.0 (20140413.2041)
 -->
<!-- Title: NamedMux4 Pages: 1 -->
<svg width="581pt" height="611pt"
 viewBox="0.00 0.00 581.00 611.00" xmlns="http://www.w3.org/2000/svg" xmlns:xlink="http://www.w3.org/1999/xlink">
<g id="graph0" class="graph" transform="scale(1 1) rotate(0) translate(4 607)">
<title>NamedMux4</title>
<polygon fill="white" stroke="none" points="-4,4 -4,-607 577,-607 577,4 -4,4"/>
<g id="clust1" class="cluster"><title>cluster_NamedMux4</title>
<polygon fill="#fff8dc" stroke="black" points="8,-8 8,-595 565,-595 565,-8 8,-8"/>
<text text-anchor="middle" x="286.5" y="-579.8" font-family="Times,serif" font-size="14.00">NamedMux4</text>
</g>
<g id="clust2" class="cluster"><title>cluster_NamedMux4_Mux2</title>
<g id="a_clust2"><a xlink:href="Mux2.dot.svg" xlink:title="Mux2">
<polygon fill="#add8e6" stroke="black" points="277,-261 277,-498 352,-498 352,-261 277,-261"/>
<text text-anchor="middle" x="314.5" y="-482.8" font-family="Times,serif" font-size="14.00">Mux2</text>
</a>
</g>
</g>
<g id="clust3" class="cluster"><title>cluster_NamedMux4_Mux2_1</title>
<g id="a_clust3"><a xlink:href="Mux2.dot.svg" xlink:title="Mux2_1">
<polygon fill="#add8e6" stroke="black" points="400,-153 400,-390 475,-390 475,-153 400,-153"/>
<text text-anchor="middle" x="437.5" y="-374.8" font-family="Times,serif" font-size="14.00">Mux2_1</text>
</a>
</g>
</g>
<g id="clust4" class="cluster"><title>cluster_NamedMux4_Mux2_2</title>
<g id="a_clust4"><a xlink:href="Mux2.dot.svg" xlink:title="Mux2_2">
<polygon fill="#add8e6" stroke="black" points="277,-16 277,-253 352,-253 352,-16 277,-16"/>
<text text-anchor="middle" x="314.5" y="-237.8" font-family="Times,serif" font-size="14.00">Mux2_2</text>
</a>
</g>
</g>
<!-- cluster_NamedMux4_io_sel -->
<g id="node1" class="node"><title>cluster_NamedMux4_io_sel</title>
<polygon fill="#cccccc" stroke="black" points="70,-491 16,-491 16,-455 70,-455 70,-491"/>
<text text-anchor="middle" x="43" y="-469.3" font-family="Times,serif" font-size="14.00">io_sel</text>
</g>
<!-- op_bits_6 -->
<g id="node19" class="node"><title>op_bits_6</title>
<polygon fill="#d8bfd8" stroke="none" points="114,-435 114,-485 213,-485 213,-435 114,-435"/>
<polygon fill="none" stroke="black" points="114.5,-460 114.5,-485 155.5,-485 155.5,-460 114.5,-460"/>
<text text-anchor="start" x="130" y="-468.8" font-family="Times,serif" font-size="14.00">●</text>
<polygon fill="none" stroke="black" points="155.5,-435 155.5,-485 193.5,-485 193.5,-435 155.5,-435"/>
<text text-anchor="start" x="160.5" y="-456.3" font-family="Times,serif" font-size="14.00"> bits </text>
<polygon fill="none" stroke="black" points="193.5,-435 193.5,-485 213.5,-485 213.5,-435 193.5,-435"/>
<text text-anchor="start" x="198.5" y="-456.3" font-family="Times,serif" font-size="14.00">●</text>
<polygon fill="none" stroke="black" points="114.5,-435 114.5,-460 155.5,-460 155.5,-435 114.5,-435"/>
<text text-anchor="start" x="119.5" y="-443.8" font-family="Times,serif" font-size="14.00">(0, 0)</text>
</g>
<!-- cluster_NamedMux4_io_sel&#45;&gt;op_bits_6 -->
<g id="edge3" class="edge"><title>cluster_NamedMux4_io_sel&#45;&gt;op_bits_6:in1</title>
<path fill="none" stroke="black" d="M70.0725,-473C80.0577,-473 91.7928,-473 103.189,-473"/>
<polygon fill="black" stroke="black" points="103.5,-476.5 113.5,-473 103.5,-469.5 103.5,-476.5"/>
</g>
<!-- op_bits_7 -->
<g id="node20" class="node"><title>op_bits_7</title>
<polygon fill="#d8bfd8" stroke="none" points="265,-510 265,-560 364,-560 364,-510 265,-510"/>
<polygon fill="none" stroke="black" points="265.5,-535 265.5,-560 306.5,-560 306.5,-535 265.5,-535"/>
<text text-anchor="start" x="281" y="-543.8" font-family="Times,serif" font-size="14.00">●</text>
<polygon fill="none" stroke="black" points="306.5,-510 306.5,-560 344.5,-560 344.5,-510 306.5,-510"/>
<text text-anchor="start" x="311.5" y="-531.3" font-family="Times,serif" font-size="14.00"> bits </text>
<polygon fill="none" stroke="black" points="344.5,-510 344.5,-560 364.5,-560 364.5,-510 344.5,-510"/>
<text text-anchor="start" x="349.5" y="-531.3" font-family="Times,serif" font-size="14.00">●</text>
<polygon fill="none" stroke="black" points="265.5,-510 265.5,-535 306.5,-535 306.5,-510 265.5,-510"/>
<text text-anchor="start" x="270.5" y="-518.8" font-family="Times,serif" font-size="14.00">(1, 1)</text>
</g>
<!-- cluster_NamedMux4_io_sel&#45;&gt;op_bits_7 -->
<g id="edge9" class="edge"><title>cluster_NamedMux4_io_sel&#45;&gt;op_bits_7:in1</title>
<path fill="none" stroke="black" d="M70.1741,-488.177C108.616,-509.065 183.459,-544.481 254.111,-547.756"/>
<polygon fill="black" stroke="black" points="254.42,-551.264 264.5,-548 254.585,-544.266 254.42,-551.264"/>
</g>
<!-- op_bits_8 -->
<g id="node21" class="node"><title>op_bits_8</title>
<polygon fill="#d8bfd8" stroke="none" points="114,-221 114,-271 213,-271 213,-221 114,-221"/>
<polygon fill="none" stroke="black" points="114.5,-246 114.5,-271 155.5,-271 155.5,-246 114.5,-246"/>
<text text-anchor="start" x="130" y="-254.8" font-family="Times,serif" font-size="14.00">●</text>
<polygon fill="none" stroke="black" points="155.5,-221 155.5,-271 193.5,-271 193.5,-221 155.5,-221"/>
<text text-anchor="start" x="160.5" y="-242.3" font-family="Times,serif" font-size="14.00"> bits </text>
<polygon fill="none" stroke="black" points="193.5,-221 193.5,-271 213.5,-271 213.5,-221 193.5,-221"/>
<text text-anchor="start" x="198.5" y="-242.3" font-family="Times,serif" font-size="14.00">●</text>
<polygon fill="none" stroke="black" points="114.5,-221 114.5,-246 155.5,-246 155.5,-221 114.5,-221"/>
<text text-anchor="start" x="119.5" y="-229.8" font-family="Times,serif" font-size="14.00">(0, 0)</text>
</g>
<!-- cluster_NamedMux4_io_sel&#45;&gt;op_bits_8 -->
<g id="edge1" class="edge"><title>cluster_NamedMux4_io_sel&#45;&gt;op_bits_8:in1</title>
<path fill="none" stroke="black" d="M49.6198,-454.778C59.2468,-424.611 80.3564,-362.779 106,-314 114.611,-297.62 128.273,-295.031 132.904,-282.177"/>
<polygon fill="black" stroke="black" points="136.409,-282.422 134.5,-272 129.493,-281.337 136.409,-282.422"/>
</g>
<!-- cluster_NamedMux4_io_xs_0 -->
<g id="node2" class="node"><title>cluster_NamedMux4_io_xs_0</title>
<polygon fill="#cccccc" stroke="black" points="193,-413 134,-413 134,-377 193,-377 193,-413"/>
<text text-anchor="middle" x="163.5" y="-391.3" font-family="Times,serif" font-size="14.00">io_xs_0</text>
</g>
<!-- cluster_NamedMux4_Mux2_io_xs_0 -->
<g id="node8" class="node"><title>cluster_NamedMux4_Mux2_io_xs_0</title>
<polygon fill="#cccccc" stroke="black" points="344,-413 285,-413 285,-377 344,-377 344,-413"/>
<text text-anchor="middle" x="314.5" y="-391.3" font-family="Times,serif" font-size="14.00">io_xs_0</text>
</g>
<!-- cluster_NamedMux4_io_xs_0&#45;&gt;cluster_NamedMux4_Mux2_io_xs_0 -->
<g id="edge8" class="edge"><title>cluster_NamedMux4_io_xs_0&#45;&gt;cluster_NamedMux4_Mux2_io_xs_0</title>
<path fill="none" stroke="black" d="M193.229,-395C216.418,-395 249.268,-395 274.778,-395"/>
<polygon fill="black" stroke="black" points="274.86,-398.5 284.859,-395 274.859,-391.5 274.86,-398.5"/>
</g>
<!-- cluster_NamedMux4_io_xs_1 -->
<g id="node3" class="node"><title>cluster_NamedMux4_io_xs_1</title>
<polygon fill="#cccccc" stroke="black" points="193,-359 134,-359 134,-323 193,-323 193,-359"/>
<text text-anchor="middle" x="163.5" y="-337.3" font-family="Times,serif" font-size="14.00">io_xs_1</text>
</g>
<!-- cluster_NamedMux4_Mux2_io_xs_1 -->
<g id="node9" class="node"><title>cluster_NamedMux4_Mux2_io_xs_1</title>
<polygon fill="#cccccc" stroke="black" points="344,-359 285,-359 285,-323 344,-323 344,-359"/>
<text text-anchor="middle" x="314.5" y="-337.3" font-family="Times,serif" font-size="14.00">io_xs_1</text>
</g>
<!-- cluster_NamedMux4_io_xs_1&#45;&gt;cluster_NamedMux4_Mux2_io_xs_1 -->
<g id="edge5" class="edge"><title>cluster_NamedMux4_io_xs_1&#45;&gt;cluster_NamedMux4_Mux2_io_xs_1</title>
<path fill="none" stroke="black" d="M193.229,-341C216.418,-341 249.268,-341 274.778,-341"/>
<polygon fill="black" stroke="black" points="274.86,-344.5 284.859,-341 274.859,-337.5 274.86,-344.5"/>
</g>
<!-- cluster_NamedMux4_io_xs_2 -->
<g id="node4" class="node"><title>cluster_NamedMux4_io_xs_2</title>
<polygon fill="#cccccc" stroke="black" points="193,-168 134,-168 134,-132 193,-132 193,-168"/>
<text text-anchor="middle" x="163.5" y="-146.3" font-family="Times,serif" font-size="14.00">io_xs_2</text>
</g>
<!-- cluster_NamedMux4_Mux2_2_io_xs_0 -->
<g id="node16" class="node"><title>cluster_NamedMux4_Mux2_2_io_xs_0</title>
<polygon fill="#cccccc" stroke="black" points="344,-168 285,-168 285,-132 344,-132 344,-168"/>
<text text-anchor="middle" x="314.5" y="-146.3" font-family="Times,serif" font-size="14.00">io_xs_0</text>
</g>
<!-- cluster_NamedMux4_io_xs_2&#45;&gt;cluster_NamedMux4_Mux2_2_io_xs_0 -->
<g id="edge2" class="edge"><title>cluster_NamedMux4_io_xs_2&#45;&gt;cluster_NamedMux4_Mux2_2_io_xs_0</title>
<path fill="none" stroke="black" d="M193.229,-150C216.418,-150 249.268,-150 274.778,-150"/>
<polygon fill="black" stroke="black" points="274.86,-153.5 284.859,-150 274.859,-146.5 274.86,-153.5"/>
</g>
<!-- cluster_NamedMux4_io_xs_3 -->
<g id="node5" class="node"><title>cluster_NamedMux4_io_xs_3</title>
<polygon fill="#cccccc" stroke="black" points="193,-114 134,-114 134,-78 193,-78 193,-114"/>
<text text-anchor="middle" x="163.5" y="-92.3" font-family="Times,serif" font-size="14.00">io_xs_3</text>
</g>
<!-- cluster_NamedMux4_Mux2_2_io_xs_1 -->
<g id="node17" class="node"><title>cluster_NamedMux4_Mux2_2_io_xs_1</title>
<polygon fill="#cccccc" stroke="black" points="344,-114 285,-114 285,-78 344,-78 344,-114"/>
<text text-anchor="middle" x="314.5" y="-92.3" font-family="Times,serif" font-size="14.00">io_xs_1</text>
</g>
<!-- cluster_NamedMux4_io_xs_3&#45;&gt;cluster_NamedMux4_Mux2_2_io_xs_1 -->
<g id="edge12" class="edge"><title>cluster_NamedMux4_io_xs_3&#45;&gt;cluster_NamedMux4_Mux2_2_io_xs_1</title>
<path fill="none" stroke="black" d="M193.229,-96C216.418,-96 249.268,-96 274.778,-96"/>
<polygon fill="black" stroke="black" points="274.86,-99.5001 284.859,-96 274.859,-92.5001 274.86,-99.5001"/>
</g>
<!-- cluster_NamedMux4_io_y -->
<g id="node6" class="node"><title>cluster_NamedMux4_io_y</title>
<polygon fill="#e0ffff" stroke="black" points="557,-197 503,-197 503,-161 557,-161 557,-197"/>
<text text-anchor="middle" x="530" y="-175.3" font-family="Times,serif" font-size="14.00">io_y</text>
</g>
<!-- cluster_NamedMux4_Mux2_io_sel -->
<g id="node7" class="node"><title>cluster_NamedMux4_Mux2_io_sel</title>
<polygon fill="#cccccc" stroke="black" points="341.5,-467 287.5,-467 287.5,-431 341.5,-431 341.5,-467"/>
<text text-anchor="middle" x="314.5" y="-445.3" font-family="Times,serif" font-size="14.00">io_sel</text>
</g>
<!-- cluster_NamedMux4_Mux2_io_y -->
<g id="node10" class="node"><title>cluster_NamedMux4_Mux2_io_y</title>
<polygon fill="#e0ffff" stroke="black" points="341.5,-305 287.5,-305 287.5,-269 341.5,-269 341.5,-305"/>
<text text-anchor="middle" x="314.5" y="-283.3" font-family="Times,serif" font-size="14.00">io_y</text>
</g>
<!-- cluster_NamedMux4_Mux2_1_io_xs_0 -->
<g id="node12" class="node"><title>cluster_NamedMux4_Mux2_1_io_xs_0</title>
<polygon fill="#cccccc" stroke="black" points="467,-305 408,-305 408,-269 467,-269 467,-305"/>
<text text-anchor="middle" x="437.5" y="-283.3" font-family="Times,serif" font-size="14.00">io_xs_0</text>
</g>
<!-- cluster_NamedMux4_Mux2_io_y&#45;&gt;cluster_NamedMux4_Mux2_1_io_xs_0 -->
<g id="edge6" class="edge"><title>cluster_NamedMux4_Mux2_io_y&#45;&gt;cluster_NamedMux4_Mux2_1_io_xs_0</title>
<path fill="none" stroke="black" d="M341.755,-287C358.1,-287 379.417,-287 397.691,-287"/>
<polygon fill="black" stroke="black" points="397.758,-290.5 407.758,-287 397.758,-283.5 397.758,-290.5"/>
</g>
<!-- cluster_NamedMux4_Mux2_1_io_sel -->
<g id="node11" class="node"><title>cluster_NamedMux4_Mux2_1_io_sel</title>
<polygon fill="#cccccc" stroke="black" points="464.5,-359 410.5,-359 410.5,-323 464.5,-323 464.5,-359"/>
<text text-anchor="middle" x="437.5" y="-337.3" font-family="Times,serif" font-size="14.00">io_sel</text>
</g>
<!-- cluster_NamedMux4_Mux2_1_io_xs_1 -->
<g id="node13" class="node"><title>cluster_NamedMux4_Mux2_1_io_xs_1</title>
<polygon fill="#cccccc" stroke="black" points="467,-251 408,-251 408,-215 467,-215 467,-251"/>
<text text-anchor="middle" x="437.5" y="-229.3" font-family="Times,serif" font-size="14.00">io_xs_1</text>
</g>
<!-- cluster_NamedMux4_Mux2_1_io_y -->
<g id="node14" class="node"><title>cluster_NamedMux4_Mux2_1_io_y</title>
<polygon fill="#e0ffff" stroke="black" points="464.5,-197 410.5,-197 410.5,-161 464.5,-161 464.5,-197"/>
<text text-anchor="middle" x="437.5" y="-175.3" font-family="Times,serif" font-size="14.00">io_y</text>
</g>
<!-- cluster_NamedMux4_Mux2_1_io_y&#45;&gt;cluster_NamedMux4_io_y -->
<g id="edge7" class="edge"><title>cluster_NamedMux4_Mux2_1_io_y&#45;&gt;cluster_NamedMux4_io_y</title>
<path fill="none" stroke="black" d="M464.676,-179C473.4,-179 483.281,-179 492.635,-179"/>
<polygon fill="black" stroke="black" points="492.883,-182.5 502.882,-179 492.882,-175.5 492.883,-182.5"/>
</g>
<!-- cluster_NamedMux4_Mux2_2_io_sel -->
<g id="node15" class="node"><title>cluster_NamedMux4_Mux2_2_io_sel</title>
<polygon fill="#cccccc" stroke="black" points="341.5,-222 287.5,-222 287.5,-186 341.5,-186 341.5,-222"/>
<text text-anchor="middle" x="314.5" y="-200.3" font-family="Times,serif" font-size="14.00">io_sel</text>
</g>
<!-- cluster_NamedMux4_Mux2_2_io_y -->
<g id="node18" class="node"><title>cluster_NamedMux4_Mux2_2_io_y</title>
<polygon fill="#e0ffff" stroke="black" points="341.5,-60 287.5,-60 287.5,-24 341.5,-24 341.5,-60"/>
<text text-anchor="middle" x="314.5" y="-38.3" font-family="Times,serif" font-size="14.00">io_y</text>
</g>
<!-- cluster_NamedMux4_Mux2_2_io_y&#45;&gt;cluster_NamedMux4_Mux2_1_io_xs_1 -->
<g id="edge4" class="edge"><title>cluster_NamedMux4_Mux2_2_io_y&#45;&gt;cluster_NamedMux4_Mux2_1_io_xs_1</title>
<path fill="none" stroke="black" d="M341.613,-48.801C352.541,-52.925 364.436,-59.32 372,-69 410.266,-117.97 366.581,-153.603 400,-206 400.331,-206.519 400.676,-207.032 401.034,-207.538"/>
<polygon fill="black" stroke="black" points="398.507,-209.964 407.75,-215.142 403.753,-205.33 398.507,-209.964"/>
</g>
<!-- op_bits_6&#45;&gt;cluster_NamedMux4_Mux2_io_sel -->
<g id="edge10" class="edge"><title>op_bits_6:out&#45;&gt;cluster_NamedMux4_Mux2_io_sel</title>
<path fill="none" stroke="black" d="M214.5,-460C235.269,-460 258.339,-457.579 276.981,-455.009"/>
<polygon fill="black" stroke="black" points="277.723,-458.438 287.116,-453.538 276.717,-451.51 277.723,-458.438"/>
</g>
<!-- op_bits_7&#45;&gt;cluster_NamedMux4_Mux2_1_io_sel -->
<g id="edge13" class="edge"><title>op_bits_7:out&#45;&gt;cluster_NamedMux4_Mux2_1_io_sel</title>
<path fill="none" stroke="black" d="M354.5,-509C354.5,-500.623 366.075,-507.922 372,-502 408.864,-465.155 425.365,-404.53 432.186,-369.127"/>
<polygon fill="black" stroke="black" points="435.682,-369.466 434.004,-359.004 428.792,-368.228 435.682,-369.466"/>
</g>
<!-- op_bits_8&#45;&gt;cluster_NamedMux4_Mux2_2_io_sel -->
<g id="edge11" class="edge"><title>op_bits_8:out&#45;&gt;cluster_NamedMux4_Mux2_2_io_sel</title>
<path fill="none" stroke="black" d="M214.5,-246C237.02,-246 260.297,-236.676 278.618,-226.814"/>
<polygon fill="black" stroke="black" points="280.475,-229.785 287.452,-221.812 277.026,-223.693 280.475,-229.785"/>
</g>
</g>
</svg>
