<?xml version="1.0" encoding="UTF-8" standalone="no"?>
<?xml-stylesheet href="styles.css" type="text/css"?>
<!DOCTYPE svg PUBLIC "-//W3C//DTD SVG 1.1//EN"
 "http://www.w3.org/Graphics/SVG/1.1/DTD/svg11.dtd">
<!-- Generated by graphviz version 2.38.0 (20140413.2041)
 -->
<!-- Title: NamedMux9_hierarchy Pages: 1 -->
<svg width="510pt" height="359pt"
 viewBox="0.00 0.00 510.00 359.00" xmlns="http://www.w3.org/2000/svg" xmlns:xlink="http://www.w3.org/1999/xlink">
<g id="graph0" class="graph" transform="scale(1 1) rotate(0) translate(4 355)">
<title>NamedMux9_hierarchy</title>
<polygon fill="white" stroke="none" points="-4,4 -4,-355 506,-355 506,4 -4,4"/>
<!-- module_1 -->
<g id="node1" class="node"><title>module_1</title>
<g id="a_node1"><a xlink:href="NamedMux9.dot.svg" xlink:title="&lt;TABLE&gt;">
<polygon fill="#ffdead" stroke="none" points="8.5,-313 8.5,-338 99.5,-338 99.5,-313 8.5,-313"/>
<polygon fill="none" stroke="black" points="8.5,-313 8.5,-338 99.5,-338 99.5,-313 8.5,-313"/>
<text text-anchor="start" x="13.5" y="-321.8" font-family="Times,serif" font-size="14.00"> NamedMux9 </text>
<polygon fill="#fff8dc" stroke="none" points="8.5,-288 8.5,-313 99.5,-313 99.5,-288 8.5,-288"/>
<polygon fill="none" stroke="black" points="8.5,-288 8.5,-313 99.5,-313 99.5,-288 8.5,-288"/>
<text text-anchor="start" x="37" y="-296.8" font-family="Times,serif" font-size="14.00">Mux2</text>
<polygon fill="#fff8dc" stroke="none" points="8.5,-263 8.5,-288 99.5,-288 99.5,-263 8.5,-263"/>
<polygon fill="none" stroke="black" points="8.5,-263 8.5,-288 99.5,-288 99.5,-263 8.5,-263"/>
<text text-anchor="start" x="17.5" y="-271.8" font-family="Times,serif" font-size="14.00">NamedMux8</text>
</a>
</g>
</g>
<!-- module_2 -->
<g id="node2" class="node"><title>module_2</title>
<g id="a_node2"><a xlink:href="NamedMux8.dot.svg" xlink:title="&lt;TABLE&gt;">
<polygon fill="#ffdead" stroke="none" points="151.5,-268 151.5,-293 248.5,-293 248.5,-268 151.5,-268"/>
<polygon fill="none" stroke="black" points="151.5,-268 151.5,-293 248.5,-293 248.5,-268 151.5,-268"/>
<text text-anchor="start" x="159.5" y="-276.8" font-family="Times,serif" font-size="14.00"> NamedMux8 </text>
<polygon fill="#fff8dc" stroke="none" points="151.5,-243 151.5,-268 248.5,-268 248.5,-243 151.5,-243"/>
<polygon fill="none" stroke="black" points="151.5,-243 151.5,-268 248.5,-268 248.5,-243 151.5,-243"/>
<text text-anchor="start" x="183" y="-251.8" font-family="Times,serif" font-size="14.00">Mux2</text>
<polygon fill="#fff8dc" stroke="none" points="151.5,-218 151.5,-243 248.5,-243 248.5,-218 151.5,-218"/>
<polygon fill="none" stroke="black" points="151.5,-218 151.5,-243 248.5,-243 248.5,-218 151.5,-218"/>
<text text-anchor="start" x="163.5" y="-226.8" font-family="Times,serif" font-size="14.00">NamedMux4</text>
<polygon fill="#fff8dc" stroke="none" points="151.5,-193 151.5,-218 248.5,-218 248.5,-193 151.5,-193"/>
<polygon fill="none" stroke="black" points="151.5,-193 151.5,-218 248.5,-218 248.5,-193 151.5,-193"/>
<text text-anchor="start" x="156.5" y="-201.8" font-family="Times,serif" font-size="14.00">NamedMux4_1</text>
</a>
</g>
</g>
<!-- module_1&#45;&gt;module_2 -->
<g id="edge10" class="edge"><title>module_1:module_2&#45;&gt;module_2</title>
<path fill="none" stroke="black" d="M100.5,-275C111.257,-275 122.365,-273.236 133.065,-270.537"/>
<polygon fill="black" stroke="black" points="134.073,-273.889 142.756,-267.819 132.183,-267.149 134.073,-273.889"/>
</g>
<!-- module_12 -->
<g id="node12" class="node"><title>module_12</title>
<g id="a_node12"><a xlink:href="Mux2.dot.svg" xlink:title="&lt;TABLE&gt;">
<polygon fill="#ffdead" stroke="none" points="174.5,-320 174.5,-345 225.5,-345 225.5,-320 174.5,-320"/>
<polygon fill="none" stroke="black" points="174.5,-320 174.5,-345 225.5,-345 225.5,-320 174.5,-320"/>
<text text-anchor="start" x="179.5" y="-328.8" font-family="Times,serif" font-size="14.00"> Mux2 </text>
</a>
</g>
</g>
<!-- module_1&#45;&gt;module_12 -->
<g id="edge11" class="edge"><title>module_1:module_12&#45;&gt;module_12</title>
<path fill="none" stroke="black" d="M100.5,-300C119.409,-300 139.348,-305.586 156.268,-312.162"/>
<polygon fill="black" stroke="black" points="155.272,-315.537 165.851,-316.113 157.94,-309.066 155.272,-315.537"/>
</g>
<!-- module_3 -->
<g id="node3" class="node"><title>module_3</title>
<g id="a_node3"><a xlink:href="Mux2.dot.svg" xlink:title="&lt;TABLE&gt;">
<polygon fill="#ffdead" stroke="none" points="320.5,-307 320.5,-332 371.5,-332 371.5,-307 320.5,-307"/>
<polygon fill="none" stroke="black" points="320.5,-307 320.5,-332 371.5,-332 371.5,-307 320.5,-307"/>
<text text-anchor="start" x="325.5" y="-315.8" font-family="Times,serif" font-size="14.00"> Mux2 </text>
</a>
</g>
</g>
<!-- module_2&#45;&gt;module_3 -->
<g id="edge1" class="edge"><title>module_2:module_3&#45;&gt;module_3</title>
<path fill="none" stroke="black" d="M249.5,-256C274.544,-256 271.269,-278.949 292,-293 295.484,-295.361 299.201,-297.66 302.986,-299.855"/>
<polygon fill="black" stroke="black" points="301.423,-302.99 311.867,-304.77 304.812,-296.865 301.423,-302.99"/>
</g>
<!-- module_4 -->
<g id="node4" class="node"><title>module_4</title>
<g id="a_node4"><a xlink:href="NamedMux4.dot.svg" xlink:title="&lt;TABLE&gt;">
<polygon fill="#ffdead" stroke="none" points="300.5,-255 300.5,-280 391.5,-280 391.5,-255 300.5,-255"/>
<polygon fill="none" stroke="black" points="300.5,-255 300.5,-280 391.5,-280 391.5,-255 300.5,-255"/>
<text text-anchor="start" x="305.5" y="-263.8" font-family="Times,serif" font-size="14.00"> NamedMux4 </text>
<polygon fill="#fff8dc" stroke="none" points="300.5,-230 300.5,-255 391.5,-255 391.5,-230 300.5,-230"/>
<polygon fill="none" stroke="black" points="300.5,-230 300.5,-255 391.5,-255 391.5,-230 300.5,-230"/>
<text text-anchor="start" x="329" y="-238.8" font-family="Times,serif" font-size="14.00">Mux2</text>
<polygon fill="#fff8dc" stroke="none" points="300.5,-205 300.5,-230 391.5,-230 391.5,-205 300.5,-205"/>
<polygon fill="none" stroke="black" points="300.5,-205 300.5,-230 391.5,-230 391.5,-205 300.5,-205"/>
<text text-anchor="start" x="322.5" y="-213.8" font-family="Times,serif" font-size="14.00">Mux2_1</text>
<polygon fill="#fff8dc" stroke="none" points="300.5,-180 300.5,-205 391.5,-205 391.5,-180 300.5,-180"/>
<polygon fill="none" stroke="black" points="300.5,-180 300.5,-205 391.5,-205 391.5,-180 300.5,-180"/>
<text text-anchor="start" x="322.5" y="-188.8" font-family="Times,serif" font-size="14.00">Mux2_2</text>
</a>
</g>
</g>
<!-- module_2&#45;&gt;module_4 -->
<g id="edge5" class="edge"><title>module_2:module_4&#45;&gt;module_4</title>
<path fill="none" stroke="black" d="M249.5,-230C259.874,-230 270.885,-230 281.594,-230"/>
<polygon fill="black" stroke="black" points="281.738,-233.5 291.738,-230 281.738,-226.5 281.738,-233.5"/>
</g>
<!-- module_8 -->
<g id="node8" class="node"><title>module_8</title>
<g id="a_node8"><a xlink:href="NamedMux4.dot.svg" xlink:title="&lt;TABLE&gt;">
<polygon fill="#ffdead" stroke="none" points="300.5,-126 300.5,-151 391.5,-151 391.5,-126 300.5,-126"/>
<polygon fill="none" stroke="black" points="300.5,-126 300.5,-151 391.5,-151 391.5,-126 300.5,-126"/>
<text text-anchor="start" x="305.5" y="-134.8" font-family="Times,serif" font-size="14.00"> NamedMux4 </text>
<polygon fill="#fff8dc" stroke="none" points="300.5,-101 300.5,-126 391.5,-126 391.5,-101 300.5,-101"/>
<polygon fill="none" stroke="black" points="300.5,-101 300.5,-126 391.5,-126 391.5,-101 300.5,-101"/>
<text text-anchor="start" x="329" y="-109.8" font-family="Times,serif" font-size="14.00">Mux2</text>
<polygon fill="#fff8dc" stroke="none" points="300.5,-76 300.5,-101 391.5,-101 391.5,-76 300.5,-76"/>
<polygon fill="none" stroke="black" points="300.5,-76 300.5,-101 391.5,-101 391.5,-76 300.5,-76"/>
<text text-anchor="start" x="322.5" y="-84.8" font-family="Times,serif" font-size="14.00">Mux2_1</text>
<polygon fill="#fff8dc" stroke="none" points="300.5,-51 300.5,-76 391.5,-76 391.5,-51 300.5,-51"/>
<polygon fill="none" stroke="black" points="300.5,-51 300.5,-76 391.5,-76 391.5,-51 300.5,-51"/>
<text text-anchor="start" x="322.5" y="-59.8" font-family="Times,serif" font-size="14.00">Mux2_2</text>
</a>
</g>
</g>
<!-- module_2&#45;&gt;module_8 -->
<g id="edge9" class="edge"><title>module_2:module_8&#45;&gt;module_8</title>
<path fill="none" stroke="black" d="M249.5,-205C256.338,-205 275.338,-185.145 294.565,-162.786"/>
<polygon fill="black" stroke="black" points="297.263,-165.017 301.077,-155.132 291.931,-160.48 297.263,-165.017"/>
</g>
<!-- module_5 -->
<g id="node5" class="node"><title>module_5</title>
<g id="a_node5"><a xlink:href="Mux2.dot.svg" xlink:title="&lt;TABLE&gt;">
<polygon fill="#ffdead" stroke="none" points="443.5,-275 443.5,-300 494.5,-300 494.5,-275 443.5,-275"/>
<polygon fill="none" stroke="black" points="443.5,-275 443.5,-300 494.5,-300 494.5,-275 443.5,-275"/>
<text text-anchor="start" x="448.5" y="-283.8" font-family="Times,serif" font-size="14.00"> Mux2 </text>
</a>
</g>
</g>
<!-- module_4&#45;&gt;module_5 -->
<g id="edge2" class="edge"><title>module_4:module_5&#45;&gt;module_5</title>
<path fill="none" stroke="black" d="M392.5,-243C401.789,-243 419.329,-253.278 435.112,-264.01"/>
<polygon fill="black" stroke="black" points="433.432,-267.105 443.636,-269.956 437.437,-261.364 433.432,-267.105"/>
</g>
<!-- module_6 -->
<g id="node6" class="node"><title>module_6</title>
<g id="a_node6"><a xlink:href="Mux2.dot.svg" xlink:title="&lt;TABLE&gt;">
<polygon fill="#ffdead" stroke="none" points="443.5,-221 443.5,-246 494.5,-246 494.5,-221 443.5,-221"/>
<polygon fill="none" stroke="black" points="443.5,-221 443.5,-246 494.5,-246 494.5,-221 443.5,-221"/>
<text text-anchor="start" x="448.5" y="-229.8" font-family="Times,serif" font-size="14.00"> Mux2 </text>
</a>
</g>
</g>
<!-- module_4&#45;&gt;module_6 -->
<g id="edge3" class="edge"><title>module_4:module_6&#45;&gt;module_6</title>
<path fill="none" stroke="black" d="M392.5,-217C403.124,-217 414.389,-218.642 424.87,-220.906"/>
<polygon fill="black" stroke="black" points="424.094,-224.319 434.633,-223.234 425.718,-217.51 424.094,-224.319"/>
</g>
<!-- module_7 -->
<g id="node7" class="node"><title>module_7</title>
<g id="a_node7"><a xlink:href="Mux2.dot.svg" xlink:title="&lt;TABLE&gt;">
<polygon fill="#ffdead" stroke="none" points="443.5,-167 443.5,-192 494.5,-192 494.5,-167 443.5,-167"/>
<polygon fill="none" stroke="black" points="443.5,-167 443.5,-192 494.5,-192 494.5,-167 443.5,-167"/>
<text text-anchor="start" x="448.5" y="-175.8" font-family="Times,serif" font-size="14.00"> Mux2 </text>
</a>
</g>
</g>
<!-- module_4&#45;&gt;module_7 -->
<g id="edge4" class="edge"><title>module_4:module_7&#45;&gt;module_7</title>
<path fill="none" stroke="black" d="M392.5,-192C402.983,-192 414.188,-190.843 424.656,-189.247"/>
<polygon fill="black" stroke="black" points="425.545,-192.646 434.824,-187.532 424.381,-185.744 425.545,-192.646"/>
</g>
<!-- module_9 -->
<g id="node9" class="node"><title>module_9</title>
<g id="a_node9"><a xlink:href="Mux2.dot.svg" xlink:title="&lt;TABLE&gt;">
<polygon fill="#ffdead" stroke="none" points="443.5,-113 443.5,-138 494.5,-138 494.5,-113 443.5,-113"/>
<polygon fill="none" stroke="black" points="443.5,-113 443.5,-138 494.5,-138 494.5,-113 443.5,-113"/>
<text text-anchor="start" x="448.5" y="-121.8" font-family="Times,serif" font-size="14.00"> Mux2 </text>
</a>
</g>
</g>
<!-- module_8&#45;&gt;module_9 -->
<g id="edge6" class="edge"><title>module_8:module_9&#45;&gt;module_9</title>
<path fill="none" stroke="black" d="M392.5,-114C402.983,-114 414.188,-115.157 424.656,-116.753"/>
<polygon fill="black" stroke="black" points="424.381,-120.256 434.824,-118.468 425.545,-113.354 424.381,-120.256"/>
</g>
<!-- module_10 -->
<g id="node10" class="node"><title>module_10</title>
<g id="a_node10"><a xlink:href="Mux2.dot.svg" xlink:title="&lt;TABLE&gt;">
<polygon fill="#ffdead" stroke="none" points="443.5,-59 443.5,-84 494.5,-84 494.5,-59 443.5,-59"/>
<polygon fill="none" stroke="black" points="443.5,-59 443.5,-84 494.5,-84 494.5,-59 443.5,-59"/>
<text text-anchor="start" x="448.5" y="-67.8" font-family="Times,serif" font-size="14.00"> Mux2 </text>
</a>
</g>
</g>
<!-- module_8&#45;&gt;module_10 -->
<g id="edge7" class="edge"><title>module_8:module_10&#45;&gt;module_10</title>
<path fill="none" stroke="black" d="M392.5,-88C403.195,-88 414.562,-86.4247 425.127,-84.2626"/>
<polygon fill="black" stroke="black" points="425.979,-87.6585 434.963,-82.0422 424.438,-80.8303 425.979,-87.6585"/>
</g>
<!-- module_11 -->
<g id="node11" class="node"><title>module_11</title>
<g id="a_node11"><a xlink:href="Mux2.dot.svg" xlink:title="&lt;TABLE&gt;">
<polygon fill="#ffdead" stroke="none" points="443.5,-5 443.5,-30 494.5,-30 494.5,-5 443.5,-5"/>
<polygon fill="none" stroke="black" points="443.5,-5 443.5,-30 494.5,-30 494.5,-5 443.5,-5"/>
<text text-anchor="start" x="448.5" y="-13.8" font-family="Times,serif" font-size="14.00"> Mux2 </text>
</a>
</g>
</g>
<!-- module_8&#45;&gt;module_11 -->
<g id="edge8" class="edge"><title>module_8:module_11&#45;&gt;module_11</title>
<path fill="none" stroke="black" d="M392.5,-63C401.789,-63 419.329,-52.7223 435.112,-41.9904"/>
<polygon fill="black" stroke="black" points="437.437,-44.636 443.636,-36.0439 433.432,-38.8949 437.437,-44.636"/>
</g>
</g>
</svg>
