<?xml version="1.0" encoding="UTF-8" standalone="no"?>
<?xml-stylesheet href="styles.css" type="text/css"?>
<!DOCTYPE svg PUBLIC "-//W3C//DTD SVG 1.1//EN"
 "http://www.w3.org/Graphics/SVG/1.1/DTD/svg11.dtd">
<!-- Generated by graphviz version 2.38.0 (20140413.2041)
 -->
<!-- Title: NamedMux5_hierarchy Pages: 1 -->
<svg width="361pt" height="201pt"
 viewBox="0.00 0.00 361.00 201.00" xmlns="http://www.w3.org/2000/svg" xmlns:xlink="http://www.w3.org/1999/xlink">
<g id="graph0" class="graph" transform="scale(1 1) rotate(0) translate(4 197)">
<title>NamedMux5_hierarchy</title>
<polygon fill="white" stroke="none" points="-4,4 -4,-197 357,-197 357,4 -4,4"/>
<!-- module_1 -->
<g id="node1" class="node"><title>module_1</title>
<g id="a_node1"><a xlink:href="NamedMux5.dot.svg" xlink:title="&lt;TABLE&gt;">
<polygon fill="#ffdead" stroke="none" points="8.5,-155 8.5,-180 99.5,-180 99.5,-155 8.5,-155"/>
<polygon fill="none" stroke="black" points="8.5,-155 8.5,-180 99.5,-180 99.5,-155 8.5,-155"/>
<text text-anchor="start" x="13.5" y="-163.8" font-family="Times,serif" font-size="14.00"> NamedMux5 </text>
<polygon fill="#fff8dc" stroke="none" points="8.5,-130 8.5,-155 99.5,-155 99.5,-130 8.5,-130"/>
<polygon fill="none" stroke="black" points="8.5,-130 8.5,-155 99.5,-155 99.5,-130 8.5,-130"/>
<text text-anchor="start" x="37" y="-138.8" font-family="Times,serif" font-size="14.00">Mux2</text>
<polygon fill="#fff8dc" stroke="none" points="8.5,-105 8.5,-130 99.5,-130 99.5,-105 8.5,-105"/>
<polygon fill="none" stroke="black" points="8.5,-105 8.5,-130 99.5,-130 99.5,-105 8.5,-105"/>
<text text-anchor="start" x="17.5" y="-113.8" font-family="Times,serif" font-size="14.00">NamedMux4</text>
</a>
</g>
</g>
<!-- module_2 -->
<g id="node2" class="node"><title>module_2</title>
<g id="a_node2"><a xlink:href="Mux2.dot.svg" xlink:title="&lt;TABLE&gt;">
<polygon fill="#ffdead" stroke="none" points="171.5,-162 171.5,-187 222.5,-187 222.5,-162 171.5,-162"/>
<polygon fill="none" stroke="black" points="171.5,-162 171.5,-187 222.5,-187 222.5,-162 171.5,-162"/>
<text text-anchor="start" x="176.5" y="-170.8" font-family="Times,serif" font-size="14.00"> Mux2 </text>
</a>
</g>
</g>
<!-- module_1&#45;&gt;module_2 -->
<g id="edge1" class="edge"><title>module_1:module_2&#45;&gt;module_2</title>
<path fill="none" stroke="black" d="M100.5,-142C118.284,-142 136.956,-147.224 152.994,-153.516"/>
<polygon fill="black" stroke="black" points="152.031,-156.907 162.608,-157.534 154.731,-150.448 152.031,-156.907"/>
</g>
<!-- module_3 -->
<g id="node3" class="node"><title>module_3</title>
<g id="a_node3"><a xlink:href="NamedMux4.dot.svg" xlink:title="&lt;TABLE&gt;">
<polygon fill="#ffdead" stroke="none" points="151.5,-110 151.5,-135 242.5,-135 242.5,-110 151.5,-110"/>
<polygon fill="none" stroke="black" points="151.5,-110 151.5,-135 242.5,-135 242.5,-110 151.5,-110"/>
<text text-anchor="start" x="156.5" y="-118.8" font-family="Times,serif" font-size="14.00"> NamedMux4 </text>
<polygon fill="#fff8dc" stroke="none" points="151.5,-85 151.5,-110 242.5,-110 242.5,-85 151.5,-85"/>
<polygon fill="none" stroke="black" points="151.5,-85 151.5,-110 242.5,-110 242.5,-85 151.5,-85"/>
<text text-anchor="start" x="180" y="-93.8" font-family="Times,serif" font-size="14.00">Mux2</text>
<polygon fill="#fff8dc" stroke="none" points="151.5,-60 151.5,-85 242.5,-85 242.5,-60 151.5,-60"/>
<polygon fill="none" stroke="black" points="151.5,-60 151.5,-85 242.5,-85 242.5,-60 151.5,-60"/>
<text text-anchor="start" x="173.5" y="-68.8" font-family="Times,serif" font-size="14.00">Mux2_1</text>
<polygon fill="#fff8dc" stroke="none" points="151.5,-35 151.5,-60 242.5,-60 242.5,-35 151.5,-35"/>
<polygon fill="none" stroke="black" points="151.5,-35 151.5,-60 242.5,-60 242.5,-35 151.5,-35"/>
<text text-anchor="start" x="173.5" y="-43.8" font-family="Times,serif" font-size="14.00">Mux2_2</text>
</a>
</g>
</g>
<!-- module_1&#45;&gt;module_3 -->
<g id="edge5" class="edge"><title>module_1:module_3&#45;&gt;module_3</title>
<path fill="none" stroke="black" d="M100.5,-117C111.293,-117 122.432,-115.122 133.115,-112.276"/>
<polygon fill="black" stroke="black" points="134.181,-115.611 142.776,-109.416 132.194,-108.899 134.181,-115.611"/>
</g>
<!-- module_4 -->
<g id="node4" class="node"><title>module_4</title>
<g id="a_node4"><a xlink:href="Mux2.dot.svg" xlink:title="&lt;TABLE&gt;">
<polygon fill="#ffdead" stroke="none" points="294.5,-113 294.5,-138 345.5,-138 345.5,-113 294.5,-113"/>
<polygon fill="none" stroke="black" points="294.5,-113 294.5,-138 345.5,-138 345.5,-113 294.5,-113"/>
<text text-anchor="start" x="299.5" y="-121.8" font-family="Times,serif" font-size="14.00"> Mux2 </text>
</a>
</g>
</g>
<!-- module_3&#45;&gt;module_4 -->
<g id="edge2" class="edge"><title>module_3:module_4&#45;&gt;module_4</title>
<path fill="none" stroke="black" d="M243.5,-98C254.567,-98 266.005,-100.709 276.513,-104.441"/>
<polygon fill="black" stroke="black" points="275.277,-107.716 285.864,-108.109 277.832,-101.199 275.277,-107.716"/>
</g>
<!-- module_5 -->
<g id="node5" class="node"><title>module_5</title>
<g id="a_node5"><a xlink:href="Mux2.dot.svg" xlink:title="&lt;TABLE&gt;">
<polygon fill="#ffdead" stroke="none" points="294.5,-59 294.5,-84 345.5,-84 345.5,-59 294.5,-59"/>
<polygon fill="none" stroke="black" points="294.5,-59 294.5,-84 345.5,-84 345.5,-59 294.5,-59"/>
<text text-anchor="start" x="299.5" y="-67.8" font-family="Times,serif" font-size="14.00"> Mux2 </text>
</a>
</g>
</g>
<!-- module_3&#45;&gt;module_5 -->
<g id="edge3" class="edge"><title>module_3:module_5&#45;&gt;module_5</title>
<path fill="none" stroke="black" d="M243.5,-72C253.852,-72 265.007,-72 275.468,-72"/>
<polygon fill="black" stroke="black" points="275.643,-75.5001 285.643,-72 275.643,-68.5001 275.643,-75.5001"/>
</g>
<!-- module_6 -->
<g id="node6" class="node"><title>module_6</title>
<g id="a_node6"><a xlink:href="Mux2.dot.svg" xlink:title="&lt;TABLE&gt;">
<polygon fill="#ffdead" stroke="none" points="294.5,-5 294.5,-30 345.5,-30 345.5,-5 294.5,-5"/>
<polygon fill="none" stroke="black" points="294.5,-5 294.5,-30 345.5,-30 345.5,-5 294.5,-5"/>
<text text-anchor="start" x="299.5" y="-13.8" font-family="Times,serif" font-size="14.00"> Mux2 </text>
</a>
</g>
</g>
<!-- module_3&#45;&gt;module_6 -->
<g id="edge4" class="edge"><title>module_3:module_6&#45;&gt;module_6</title>
<path fill="none" stroke="black" d="M243.5,-47C254.937,-47 266.734,-44.0303 277.49,-39.9915"/>
<polygon fill="black" stroke="black" points="279.137,-43.0978 287.035,-36.0363 276.457,-36.631 279.137,-43.0978"/>
</g>
</g>
</svg>
