<?xml version="1.0" encoding="UTF-8" standalone="no"?>
<?xml-stylesheet href="styles.css" type="text/css"?>
<!DOCTYPE svg PUBLIC "-//W3C//DTD SVG 1.1//EN"
 "http://www.w3.org/Graphics/SVG/1.1/DTD/svg11.dtd">
<!-- Generated by graphviz version 2.38.0 (20140413.2041)
 -->
<!-- Title: NamedMux9 Pages: 1 -->
<svg width="581pt" height="736pt"
 viewBox="0.00 0.00 581.00 736.00" xmlns="http://www.w3.org/2000/svg" xmlns:xlink="http://www.w3.org/1999/xlink">
<g id="graph0" class="graph" transform="scale(1 1) rotate(0) translate(4 732)">
<title>NamedMux9</title>
<polygon fill="white" stroke="none" points="-4,4 -4,-732 577,-732 577,4 -4,4"/>
<g id="clust1" class="cluster"><title>cluster_NamedMux9</title>
<polygon fill="#fff8dc" stroke="black" points="8,-8 8,-720 565,-720 565,-8 8,-8"/>
<text text-anchor="middle" x="286.5" y="-704.8" font-family="Times,serif" font-size="14.00">NamedMux9</text>
</g>
<g id="clust2" class="cluster"><title>cluster_NamedMux9_NamedMux8</title>
<g id="a_clust2"><a xlink:href="NamedMux8.dot.svg" xlink:title="NamedMux8">
<polygon fill="#add8e6" stroke="black" points="270,-62 270,-623 359,-623 359,-62 270,-62"/>
<text text-anchor="middle" x="314.5" y="-607.8" font-family="Times,serif" font-size="14.00">NamedMux8</text>
</a>
</g>
</g>
<g id="clust12" class="cluster"><title>cluster_NamedMux9_Mux2</title>
<g id="a_clust12"><a xlink:href="Mux2.dot.svg" xlink:title="Mux2">
<polygon fill="#add8e6" stroke="black" points="400,-16 400,-253 475,-253 475,-16 400,-16"/>
<text text-anchor="middle" x="437.5" y="-237.8" font-family="Times,serif" font-size="14.00">Mux2</text>
</a>
</g>
</g>
<!-- cluster_NamedMux9_clock -->
<g id="node1" class="node"><title>cluster_NamedMux9_clock</title>
<polygon fill="#cccccc" stroke="black" points="70,-689 16,-689 16,-653 70,-653 70,-689"/>
<text text-anchor="middle" x="43" y="-667.3" font-family="Times,serif" font-size="14.00">clock</text>
</g>
<!-- cluster_NamedMux9_reset -->
<g id="node2" class="node"><title>cluster_NamedMux9_reset</title>
<polygon fill="#cccccc" stroke="black" points="70,-635 16,-635 16,-599 70,-599 70,-635"/>
<text text-anchor="middle" x="43" y="-613.3" font-family="Times,serif" font-size="14.00">reset</text>
</g>
<!-- cluster_NamedMux9_io_sel -->
<g id="node3" class="node"><title>cluster_NamedMux9_io_sel</title>
<polygon fill="#cccccc" stroke="black" points="70,-581 16,-581 16,-545 70,-545 70,-581"/>
<text text-anchor="middle" x="43" y="-559.3" font-family="Times,serif" font-size="14.00">io_sel</text>
</g>
<!-- op_bits_1 -->
<g id="node28" class="node"><title>op_bits_1</title>
<polygon fill="#d8bfd8" stroke="none" points="114,-560 114,-610 213,-610 213,-560 114,-560"/>
<polygon fill="none" stroke="black" points="114.5,-585 114.5,-610 155.5,-610 155.5,-585 114.5,-585"/>
<text text-anchor="start" x="130" y="-593.8" font-family="Times,serif" font-size="14.00">●</text>
<polygon fill="none" stroke="black" points="155.5,-560 155.5,-610 193.5,-610 193.5,-560 155.5,-560"/>
<text text-anchor="start" x="160.5" y="-581.3" font-family="Times,serif" font-size="14.00"> bits </text>
<polygon fill="none" stroke="black" points="193.5,-560 193.5,-610 213.5,-610 213.5,-560 193.5,-560"/>
<text text-anchor="start" x="198.5" y="-581.3" font-family="Times,serif" font-size="14.00">●</text>
<polygon fill="none" stroke="black" points="114.5,-560 114.5,-585 155.5,-585 155.5,-560 114.5,-560"/>
<text text-anchor="start" x="119.5" y="-568.8" font-family="Times,serif" font-size="14.00">(2, 0)</text>
</g>
<!-- cluster_NamedMux9_io_sel&#45;&gt;op_bits_1 -->
<g id="edge1" class="edge"><title>cluster_NamedMux9_io_sel&#45;&gt;op_bits_1:in1</title>
<path fill="none" stroke="black" d="M66.7055,-581.115C77.0183,-587.921 89.8866,-594.602 103.234,-597.035"/>
<polygon fill="black" stroke="black" points="103.216,-600.549 113.5,-598 103.871,-593.58 103.216,-600.549"/>
</g>
<!-- op_bits_2 -->
<g id="node29" class="node"><title>op_bits_2</title>
<polygon fill="#d8bfd8" stroke="none" points="265,-635 265,-685 364,-685 364,-635 265,-635"/>
<polygon fill="none" stroke="black" points="265.5,-660 265.5,-685 306.5,-685 306.5,-660 265.5,-660"/>
<text text-anchor="start" x="281" y="-668.8" font-family="Times,serif" font-size="14.00">●</text>
<polygon fill="none" stroke="black" points="306.5,-635 306.5,-685 344.5,-685 344.5,-635 306.5,-635"/>
<text text-anchor="start" x="311.5" y="-656.3" font-family="Times,serif" font-size="14.00"> bits </text>
<polygon fill="none" stroke="black" points="344.5,-635 344.5,-685 364.5,-685 364.5,-635 344.5,-635"/>
<text text-anchor="start" x="349.5" y="-656.3" font-family="Times,serif" font-size="14.00">●</text>
<polygon fill="none" stroke="black" points="265.5,-635 265.5,-660 306.5,-660 306.5,-635 265.5,-635"/>
<text text-anchor="start" x="270.5" y="-643.8" font-family="Times,serif" font-size="14.00">(3, 3)</text>
</g>
<!-- cluster_NamedMux9_io_sel&#45;&gt;op_bits_2 -->
<g id="edge6" class="edge"><title>cluster_NamedMux9_io_sel&#45;&gt;op_bits_2:in1</title>
<path fill="none" stroke="black" d="M61.7553,-581.002C78.2067,-597.545 100.885,-619.953 106,-623 166.484,-659.034 188.556,-671.801 254.45,-672.918"/>
<polygon fill="black" stroke="black" points="254.472,-676.418 264.5,-673 254.529,-669.419 254.472,-676.418"/>
</g>
<!-- cluster_NamedMux9_io_xs_0 -->
<g id="node4" class="node"><title>cluster_NamedMux9_io_xs_0</title>
<polygon fill="#cccccc" stroke="black" points="193,-538 134,-538 134,-502 193,-502 193,-538"/>
<text text-anchor="middle" x="163.5" y="-516.3" font-family="Times,serif" font-size="14.00">io_xs_0</text>
</g>
<!-- cluster_NamedMux9_NamedMux8_io_xs_0 -->
<g id="node15" class="node"><title>cluster_NamedMux9_NamedMux8_io_xs_0</title>
<polygon fill="#cccccc" stroke="black" points="344,-538 285,-538 285,-502 344,-502 344,-538"/>
<text text-anchor="middle" x="314.5" y="-516.3" font-family="Times,serif" font-size="14.00">io_xs_0</text>
</g>
<!-- cluster_NamedMux9_io_xs_0&#45;&gt;cluster_NamedMux9_NamedMux8_io_xs_0 -->
<g id="edge11" class="edge"><title>cluster_NamedMux9_io_xs_0&#45;&gt;cluster_NamedMux9_NamedMux8_io_xs_0</title>
<path fill="none" stroke="black" d="M193.229,-520C216.418,-520 249.268,-520 274.778,-520"/>
<polygon fill="black" stroke="black" points="274.86,-523.5 284.859,-520 274.859,-516.5 274.86,-523.5"/>
</g>
<!-- cluster_NamedMux9_io_xs_1 -->
<g id="node5" class="node"><title>cluster_NamedMux9_io_xs_1</title>
<polygon fill="#cccccc" stroke="black" points="193,-484 134,-484 134,-448 193,-448 193,-484"/>
<text text-anchor="middle" x="163.5" y="-462.3" font-family="Times,serif" font-size="14.00">io_xs_1</text>
</g>
<!-- cluster_NamedMux9_NamedMux8_io_xs_1 -->
<g id="node16" class="node"><title>cluster_NamedMux9_NamedMux8_io_xs_1</title>
<polygon fill="#cccccc" stroke="black" points="344,-484 285,-484 285,-448 344,-448 344,-484"/>
<text text-anchor="middle" x="314.5" y="-462.3" font-family="Times,serif" font-size="14.00">io_xs_1</text>
</g>
<!-- cluster_NamedMux9_io_xs_1&#45;&gt;cluster_NamedMux9_NamedMux8_io_xs_1 -->
<g id="edge4" class="edge"><title>cluster_NamedMux9_io_xs_1&#45;&gt;cluster_NamedMux9_NamedMux8_io_xs_1</title>
<path fill="none" stroke="black" d="M193.229,-466C216.418,-466 249.268,-466 274.778,-466"/>
<polygon fill="black" stroke="black" points="274.86,-469.5 284.859,-466 274.859,-462.5 274.86,-469.5"/>
</g>
<!-- cluster_NamedMux9_io_xs_2 -->
<g id="node6" class="node"><title>cluster_NamedMux9_io_xs_2</title>
<polygon fill="#cccccc" stroke="black" points="193,-430 134,-430 134,-394 193,-394 193,-430"/>
<text text-anchor="middle" x="163.5" y="-408.3" font-family="Times,serif" font-size="14.00">io_xs_2</text>
</g>
<!-- cluster_NamedMux9_NamedMux8_io_xs_2 -->
<g id="node17" class="node"><title>cluster_NamedMux9_NamedMux8_io_xs_2</title>
<polygon fill="#cccccc" stroke="black" points="344,-430 285,-430 285,-394 344,-394 344,-430"/>
<text text-anchor="middle" x="314.5" y="-408.3" font-family="Times,serif" font-size="14.00">io_xs_2</text>
</g>
<!-- cluster_NamedMux9_io_xs_2&#45;&gt;cluster_NamedMux9_NamedMux8_io_xs_2 -->
<g id="edge13" class="edge"><title>cluster_NamedMux9_io_xs_2&#45;&gt;cluster_NamedMux9_NamedMux8_io_xs_2</title>
<path fill="none" stroke="black" d="M193.229,-412C216.418,-412 249.268,-412 274.778,-412"/>
<polygon fill="black" stroke="black" points="274.86,-415.5 284.859,-412 274.859,-408.5 274.86,-415.5"/>
</g>
<!-- cluster_NamedMux9_io_xs_3 -->
<g id="node7" class="node"><title>cluster_NamedMux9_io_xs_3</title>
<polygon fill="#cccccc" stroke="black" points="193,-376 134,-376 134,-340 193,-340 193,-376"/>
<text text-anchor="middle" x="163.5" y="-354.3" font-family="Times,serif" font-size="14.00">io_xs_3</text>
</g>
<!-- cluster_NamedMux9_NamedMux8_io_xs_3 -->
<g id="node18" class="node"><title>cluster_NamedMux9_NamedMux8_io_xs_3</title>
<polygon fill="#cccccc" stroke="black" points="344,-376 285,-376 285,-340 344,-340 344,-376"/>
<text text-anchor="middle" x="314.5" y="-354.3" font-family="Times,serif" font-size="14.00">io_xs_3</text>
</g>
<!-- cluster_NamedMux9_io_xs_3&#45;&gt;cluster_NamedMux9_NamedMux8_io_xs_3 -->
<g id="edge8" class="edge"><title>cluster_NamedMux9_io_xs_3&#45;&gt;cluster_NamedMux9_NamedMux8_io_xs_3</title>
<path fill="none" stroke="black" d="M193.229,-358C216.418,-358 249.268,-358 274.778,-358"/>
<polygon fill="black" stroke="black" points="274.86,-361.5 284.859,-358 274.859,-354.5 274.86,-361.5"/>
</g>
<!-- cluster_NamedMux9_io_xs_4 -->
<g id="node8" class="node"><title>cluster_NamedMux9_io_xs_4</title>
<polygon fill="#cccccc" stroke="black" points="193,-322 134,-322 134,-286 193,-286 193,-322"/>
<text text-anchor="middle" x="163.5" y="-300.3" font-family="Times,serif" font-size="14.00">io_xs_4</text>
</g>
<!-- cluster_NamedMux9_NamedMux8_io_xs_4 -->
<g id="node19" class="node"><title>cluster_NamedMux9_NamedMux8_io_xs_4</title>
<polygon fill="#cccccc" stroke="black" points="344,-322 285,-322 285,-286 344,-286 344,-322"/>
<text text-anchor="middle" x="314.5" y="-300.3" font-family="Times,serif" font-size="14.00">io_xs_4</text>
</g>
<!-- cluster_NamedMux9_io_xs_4&#45;&gt;cluster_NamedMux9_NamedMux8_io_xs_4 -->
<g id="edge5" class="edge"><title>cluster_NamedMux9_io_xs_4&#45;&gt;cluster_NamedMux9_NamedMux8_io_xs_4</title>
<path fill="none" stroke="black" d="M193.229,-304C216.418,-304 249.268,-304 274.778,-304"/>
<polygon fill="black" stroke="black" points="274.86,-307.5 284.859,-304 274.859,-300.5 274.86,-307.5"/>
</g>
<!-- cluster_NamedMux9_io_xs_5 -->
<g id="node9" class="node"><title>cluster_NamedMux9_io_xs_5</title>
<polygon fill="#cccccc" stroke="black" points="193,-268 134,-268 134,-232 193,-232 193,-268"/>
<text text-anchor="middle" x="163.5" y="-246.3" font-family="Times,serif" font-size="14.00">io_xs_5</text>
</g>
<!-- cluster_NamedMux9_NamedMux8_io_xs_5 -->
<g id="node20" class="node"><title>cluster_NamedMux9_NamedMux8_io_xs_5</title>
<polygon fill="#cccccc" stroke="black" points="344,-268 285,-268 285,-232 344,-232 344,-268"/>
<text text-anchor="middle" x="314.5" y="-246.3" font-family="Times,serif" font-size="14.00">io_xs_5</text>
</g>
<!-- cluster_NamedMux9_io_xs_5&#45;&gt;cluster_NamedMux9_NamedMux8_io_xs_5 -->
<g id="edge15" class="edge"><title>cluster_NamedMux9_io_xs_5&#45;&gt;cluster_NamedMux9_NamedMux8_io_xs_5</title>
<path fill="none" stroke="black" d="M193.229,-250C216.418,-250 249.268,-250 274.778,-250"/>
<polygon fill="black" stroke="black" points="274.86,-253.5 284.859,-250 274.859,-246.5 274.86,-253.5"/>
</g>
<!-- cluster_NamedMux9_io_xs_6 -->
<g id="node10" class="node"><title>cluster_NamedMux9_io_xs_6</title>
<polygon fill="#cccccc" stroke="black" points="193,-214 134,-214 134,-178 193,-178 193,-214"/>
<text text-anchor="middle" x="163.5" y="-192.3" font-family="Times,serif" font-size="14.00">io_xs_6</text>
</g>
<!-- cluster_NamedMux9_NamedMux8_io_xs_6 -->
<g id="node21" class="node"><title>cluster_NamedMux9_NamedMux8_io_xs_6</title>
<polygon fill="#cccccc" stroke="black" points="344,-214 285,-214 285,-178 344,-178 344,-214"/>
<text text-anchor="middle" x="314.5" y="-192.3" font-family="Times,serif" font-size="14.00">io_xs_6</text>
</g>
<!-- cluster_NamedMux9_io_xs_6&#45;&gt;cluster_NamedMux9_NamedMux8_io_xs_6 -->
<g id="edge9" class="edge"><title>cluster_NamedMux9_io_xs_6&#45;&gt;cluster_NamedMux9_NamedMux8_io_xs_6</title>
<path fill="none" stroke="black" d="M193.229,-196C216.418,-196 249.268,-196 274.778,-196"/>
<polygon fill="black" stroke="black" points="274.86,-199.5 284.859,-196 274.859,-192.5 274.86,-199.5"/>
</g>
<!-- cluster_NamedMux9_io_xs_7 -->
<g id="node11" class="node"><title>cluster_NamedMux9_io_xs_7</title>
<polygon fill="#cccccc" stroke="black" points="193,-160 134,-160 134,-124 193,-124 193,-160"/>
<text text-anchor="middle" x="163.5" y="-138.3" font-family="Times,serif" font-size="14.00">io_xs_7</text>
</g>
<!-- cluster_NamedMux9_NamedMux8_io_xs_7 -->
<g id="node22" class="node"><title>cluster_NamedMux9_NamedMux8_io_xs_7</title>
<polygon fill="#cccccc" stroke="black" points="344,-160 285,-160 285,-124 344,-124 344,-160"/>
<text text-anchor="middle" x="314.5" y="-138.3" font-family="Times,serif" font-size="14.00">io_xs_7</text>
</g>
<!-- cluster_NamedMux9_io_xs_7&#45;&gt;cluster_NamedMux9_NamedMux8_io_xs_7 -->
<g id="edge3" class="edge"><title>cluster_NamedMux9_io_xs_7&#45;&gt;cluster_NamedMux9_NamedMux8_io_xs_7</title>
<path fill="none" stroke="black" d="M193.229,-142C216.418,-142 249.268,-142 274.778,-142"/>
<polygon fill="black" stroke="black" points="274.86,-145.5 284.859,-142 274.859,-138.5 274.86,-145.5"/>
</g>
<!-- cluster_NamedMux9_io_xs_8 -->
<g id="node12" class="node"><title>cluster_NamedMux9_io_xs_8</title>
<polygon fill="#cccccc" stroke="black" points="344,-52 285,-52 285,-16 344,-16 344,-52"/>
<text text-anchor="middle" x="314.5" y="-30.3" font-family="Times,serif" font-size="14.00">io_xs_8</text>
</g>
<!-- cluster_NamedMux9_Mux2_io_xs_1 -->
<g id="node26" class="node"><title>cluster_NamedMux9_Mux2_io_xs_1</title>
<polygon fill="#cccccc" stroke="black" points="467,-114 408,-114 408,-78 467,-78 467,-114"/>
<text text-anchor="middle" x="437.5" y="-92.3" font-family="Times,serif" font-size="14.00">io_xs_1</text>
</g>
<!-- cluster_NamedMux9_io_xs_8&#45;&gt;cluster_NamedMux9_Mux2_io_xs_1 -->
<g id="edge7" class="edge"><title>cluster_NamedMux9_io_xs_8&#45;&gt;cluster_NamedMux9_Mux2_io_xs_1</title>
<path fill="none" stroke="black" d="M344.285,-45.3717C353.274,-49.1499 363.15,-53.5375 372,-58 380.871,-62.4734 390.196,-67.6636 398.912,-72.7437"/>
<polygon fill="black" stroke="black" points="397.342,-75.8816 407.731,-77.9631 400.908,-69.8576 397.342,-75.8816"/>
</g>
<!-- cluster_NamedMux9_io_y -->
<g id="node13" class="node"><title>cluster_NamedMux9_io_y</title>
<polygon fill="#e0ffff" stroke="black" points="557,-60 503,-60 503,-24 557,-24 557,-60"/>
<text text-anchor="middle" x="530" y="-38.3" font-family="Times,serif" font-size="14.00">io_y</text>
</g>
<!-- cluster_NamedMux9_NamedMux8_io_sel -->
<g id="node14" class="node"><title>cluster_NamedMux9_NamedMux8_io_sel</title>
<polygon fill="#cccccc" stroke="black" points="341.5,-592 287.5,-592 287.5,-556 341.5,-556 341.5,-592"/>
<text text-anchor="middle" x="314.5" y="-570.3" font-family="Times,serif" font-size="14.00">io_sel</text>
</g>
<!-- cluster_NamedMux9_NamedMux8_io_y -->
<g id="node23" class="node"><title>cluster_NamedMux9_NamedMux8_io_y</title>
<polygon fill="#e0ffff" stroke="black" points="341.5,-106 287.5,-106 287.5,-70 341.5,-70 341.5,-106"/>
<text text-anchor="middle" x="314.5" y="-84.3" font-family="Times,serif" font-size="14.00">io_y</text>
</g>
<!-- cluster_NamedMux9_Mux2_io_xs_0 -->
<g id="node25" class="node"><title>cluster_NamedMux9_Mux2_io_xs_0</title>
<polygon fill="#cccccc" stroke="black" points="467,-168 408,-168 408,-132 467,-132 467,-168"/>
<text text-anchor="middle" x="437.5" y="-146.3" font-family="Times,serif" font-size="14.00">io_xs_0</text>
</g>
<!-- cluster_NamedMux9_NamedMux8_io_y&#45;&gt;cluster_NamedMux9_Mux2_io_xs_0 -->
<g id="edge12" class="edge"><title>cluster_NamedMux9_NamedMux8_io_y&#45;&gt;cluster_NamedMux9_Mux2_io_xs_0</title>
<path fill="none" stroke="black" d="M341.514,-100.089C351.145,-104.654 362.121,-109.963 372,-115 380.761,-119.467 390.103,-124.422 398.878,-129.164"/>
<polygon fill="black" stroke="black" points="397.313,-132.297 407.77,-134.001 400.658,-126.148 397.313,-132.297"/>
</g>
<!-- cluster_NamedMux9_Mux2_io_sel -->
<g id="node24" class="node"><title>cluster_NamedMux9_Mux2_io_sel</title>
<polygon fill="#cccccc" stroke="black" points="464.5,-222 410.5,-222 410.5,-186 464.5,-186 464.5,-222"/>
<text text-anchor="middle" x="437.5" y="-200.3" font-family="Times,serif" font-size="14.00">io_sel</text>
</g>
<!-- cluster_NamedMux9_Mux2_io_y -->
<g id="node27" class="node"><title>cluster_NamedMux9_Mux2_io_y</title>
<polygon fill="#e0ffff" stroke="black" points="464.5,-60 410.5,-60 410.5,-24 464.5,-24 464.5,-60"/>
<text text-anchor="middle" x="437.5" y="-38.3" font-family="Times,serif" font-size="14.00">io_y</text>
</g>
<!-- cluster_NamedMux9_Mux2_io_y&#45;&gt;cluster_NamedMux9_io_y -->
<g id="edge10" class="edge"><title>cluster_NamedMux9_Mux2_io_y&#45;&gt;cluster_NamedMux9_io_y</title>
<path fill="none" stroke="black" d="M464.676,-42C473.4,-42 483.281,-42 492.635,-42"/>
<polygon fill="black" stroke="black" points="492.883,-45.5001 502.882,-42 492.882,-38.5001 492.883,-45.5001"/>
</g>
<!-- op_bits_1&#45;&gt;cluster_NamedMux9_NamedMux8_io_sel -->
<g id="edge14" class="edge"><title>op_bits_1:out&#45;&gt;cluster_NamedMux9_NamedMux8_io_sel</title>
<path fill="none" stroke="black" d="M214.5,-585C235.269,-585 258.339,-582.579 276.981,-580.009"/>
<polygon fill="black" stroke="black" points="277.723,-583.438 287.116,-578.538 276.717,-576.51 277.723,-583.438"/>
</g>
<!-- op_bits_2&#45;&gt;cluster_NamedMux9_Mux2_io_sel -->
<g id="edge2" class="edge"><title>op_bits_2:out&#45;&gt;cluster_NamedMux9_Mux2_io_sel</title>
<path fill="none" stroke="black" d="M354.5,-634C354.5,-625.623 366.793,-633.562 372,-627 420.773,-565.539 432.972,-317.493 435.747,-232.634"/>
<polygon fill="black" stroke="black" points="439.251,-232.548 436.06,-222.446 432.255,-232.334 439.251,-232.548"/>
</g>
</g>
</svg>
